<svg width="67" height="85" viewBox="0 0 67 85" fill="none" xmlns="http://www.w3.org/2000/svg">
<path fill-rule="evenodd" clip-rule="evenodd" d="M65.4052 47.0451C64.5882 47.1228 63.7711 47.2005 62.9541 47.2782C59.041 47.5679 55.1295 48.1729 51.2465 48.5361C51.1498 48.3836 50.9605 48.4087 50.8456 48.5147C50.4582 48.4818 50.0239 48.1948 49.6729 48.4933C49.6615 48.4918 49.6501 48.4899 49.6386 48.4889C49.0137 47.3265 48.5817 46.0868 48.1624 44.8454C47.8948 44.0822 47.5348 43.3434 46.8695 42.8309C45.734 42.0671 43.1324 40.5183 41.7992 40.5834C41.777 40.3521 41.6658 40.1137 41.4831 39.9597C41.8858 39.2943 40.2756 38.8603 40.162 38.9374C40.2348 36.7146 39.1558 34.7843 36.7767 34.3417C34.6453 33.9113 31.6137 33.839 30.4674 35.9975C30.3414 35.9837 29.0533 35.9772 28.9287 35.9908C28.7349 35.7529 26.607 38.0064 27.4791 38.7909C19.6819 42.1334 15.2483 41.7346 13.0901 51.1311C12.7984 52.0138 12.7771 52.9797 12.469 53.8428C11.3729 56.323 10.4839 58.9639 10.2626 61.6627C9.72826 61.7953 9.6668 62.7084 10.2858 62.8405C10.5222 62.891 10.7199 62.9599 10.8923 63.0907C10.7576 65.3023 11.3095 70.3543 11.6573 70.3387C12.3665 72.5257 15.5296 73.1429 17.769 72.3744C17.3829 73.0781 17.769 73.5207 17.769 73.8967C25.8268 74.1921 34.6373 74.022 42.693 74.4271C43.7234 74.4129 44.8072 74.6724 45.8236 74.523C46.4435 74.3791 46.4445 73.4346 45.8158 73.3179L48.563 72.7396C48.5016 72.7172 49.6954 71.9477 50.5977 70.5098C51.4375 68.9013 50.8659 66.9597 51.2465 65.21C54.2186 64.9745 57.2399 64.8737 60.1796 64.386C60.5804 65.5481 62.3155 64.1583 62.867 63.5992C62.8663 63.5983 62.8656 63.5975 62.8649 63.5966C63.1318 63.5258 63.3459 63.2834 63.353 62.9964C63.5402 62.7373 63.5795 62.372 63.4 62.1215C64.2227 57.5212 65.4769 52.8242 65.9303 48.1806C66.0905 48.1463 66.2415 48.0782 66.3694 47.9733L66.359 47.9632C66.5758 47.729 66.618 47.3248 66.2566 47.1258C65.965 46.9651 65.7216 47.0149 65.4052 47.0451Z" fill="#FFD1B0"/>
<path fill-rule="evenodd" clip-rule="evenodd" d="M34.331 64.2629L34.9604 64.651L40.1101 66.259L43.2571 66.6471L45.8319 66.259L45.8319 70.5284L46.3468 74.5205C46.118 74.9272 43.9437 74.9272 39.824 74.5205C37.1977 74.2613 27.5996 74.1356 25.4143 74.0803L25.2905 74.077C22.7226 74.0052 20.1859 74.0052 17.6805 74.077V72.5799L24.8328 69.1422L31.2412 65.6491L34.331 64.2629ZM30.6821 35.6485L31.1551 35.9908L30.1225 37.6348L35.1527 41.5776V44.727L36.7452 46.1866L37.6555 44.727L38.9382 43.074L39.8497 40.3946L39.5393 38.6294L40.1635 38.5724C40.1665 38.693 40.166 38.8148 40.162 38.9374C40.2756 38.8603 41.8858 39.2943 41.4831 39.9597C41.6658 40.1137 41.7771 40.3521 41.7992 40.5834C43.1324 40.5183 45.734 42.0671 46.8695 42.8309C47.5348 43.3434 47.8948 44.0822 48.1624 44.8454L48.2254 45.0316L48.2905 45.2227L48.356 45.4137C48.7181 46.4636 49.1091 47.504 49.6386 48.4889C49.6501 48.4899 49.6615 48.4918 49.6729 48.4933C50.0239 48.1948 50.4582 48.4818 50.8456 48.5147C50.9579 48.4112 51.141 48.3848 51.2396 48.5257L51.2465 48.5361L46.4189 49.4576L43.2341 60.2833L40.4606 58.1017L38.9718 58.3162L35.0404 59.6903L30.468 60.8412L20.0296 63.6299H18.7003L10.9653 61.8198L10.2682 61.5969C10.4984 58.921 11.3819 56.3028 12.4691 53.8428C12.7771 52.9797 12.7984 52.0138 13.0902 51.1311C15.2483 41.7346 19.6819 42.1334 27.4792 38.7909C26.607 38.0064 28.7349 35.7529 28.9287 35.9908L28.9409 35.9897L28.9673 35.9884L29.0013 35.9872C29.3055 35.9786 30.3543 35.9851 30.4674 35.9975C30.533 35.874 30.6047 35.7578 30.6821 35.6485Z" fill="#FF7F36"/>
<path fill-rule="evenodd" clip-rule="evenodd" d="M66.1768 47.3738L66.033 48.1503C65.9989 48.1612 65.9641 48.1703 65.9289 48.1779C65.8837 48.6408 65.8305 49.1043 65.7706 49.5681L64.8791 54.3831C64.7254 55.2349 64.5794 56.0886 64.4345 56.9425L64.2425 57.8598L64.1235 58.4299C63.8668 59.6645 63.6174 60.8951 63.3986 62.1188C63.4316 62.1649 63.4572 62.2149 63.4759 62.2673L63.459 62.3363L63.4473 62.3823L63.4354 62.4277C63.2627 63.071 62.9622 63.6947 62.2542 63.884C61.7201 64.0267 61.1341 64.0396 60.5826 64.0959L60.5214 64.1024L50.871 65.1541C49.705 65.2811 48.5395 65.412 47.3741 65.5442L46.3638 65.6591C44.9556 65.8171 43.5394 65.9414 42.1519 66.2274C42.101 66.238 42.0587 66.2577 42.0243 66.2837C42.3037 65.2588 42.5711 64.2354 42.8135 63.2002C43.0863 62.0351 43.3452 60.8677 43.6371 59.7068C44.2249 57.368 44.8839 55.0447 45.6053 52.7412C45.7567 52.2578 45.9116 51.7753 46.0699 51.2939L46.1809 50.9574L46.2664 50.6893C46.3987 50.2805 46.5624 49.8603 46.9503 49.6348C47.4042 49.3708 48.0232 49.3271 48.5381 49.2358L48.8867 49.1723C49.4084 49.078 49.9307 48.9873 50.4536 48.9001C52.9572 48.4828 55.4751 48.1481 58.0022 47.8967C60.6318 47.635 63.2706 47.4649 65.9126 47.3818L66.1768 47.3738ZM42.2243 63.4281L42.2489 63.43L41.8884 66.2224C41.8308 66.1833 41.7576 66.1594 41.6683 66.1596C40.4859 66.163 39.3524 65.7968 38.2561 65.3942L38.0892 65.3325L37.6237 65.1592C37.1506 64.9835 36.675 64.8117 36.1904 64.6692L35.9946 64.6119L35.895 64.5835C35.5282 64.4797 35.1423 64.3853 34.7607 64.3619L34.7086 64.3591L34.8198 64.3026C34.836 64.2943 34.8503 64.2851 34.8629 64.2751C35.073 64.2902 35.2834 64.2861 35.505 64.2474C35.9216 64.1747 36.3268 64.0342 36.6988 63.8387L36.865 63.7514L36.933 63.7164L36.9779 63.6939L37.0226 63.672C37.3421 63.5176 37.6477 63.421 38.0511 63.5032C38.5091 63.5966 38.9104 63.8358 39.3233 64.0379L39.3966 64.0732L39.4458 64.0963L39.496 64.1192L39.5469 64.1417C40.1052 64.3851 40.9937 64.6479 41.2077 63.9123C41.2937 63.6168 41.2264 63.3401 41.0772 63.0974C41.3552 63.0741 41.852 63.3918 42.2243 63.4281ZM56.1213 54.2279L56.128 54.2614C56.207 54.6732 56.009 55.0672 55.7094 55.3544C55.4637 55.5899 55.0287 55.7208 54.9056 56.0597C54.8354 56.2524 54.91 56.4353 55.0541 56.5627L55.0209 56.5786L54.9885 56.5947L54.9568 56.6109L54.9259 56.6273L54.8958 56.6437C54.4064 56.9162 54.0078 57.3593 54.4492 57.8946C54.95 58.5017 55.9964 58.5214 56.7336 58.4739L56.7832 58.4705C57.4981 58.4186 58.3449 58.1859 58.7325 57.5463C58.9103 57.2529 58.8907 56.898 58.6429 56.6469C58.4934 56.4954 58.2267 56.3398 57.9821 56.3214C57.9928 56.1879 57.9764 56.0589 57.9279 55.9501C57.8231 55.7148 57.5442 55.5564 57.2751 55.5507C57.2969 55.0512 56.884 54.5581 56.58 54.1587L56.549 54.1177L56.5188 54.0774C56.3793 53.8894 56.0809 53.9947 56.1213 54.2279ZM56.5292 54.7596L56.8062 55.7651L56.8015 55.7733C56.7039 55.9529 56.9597 56.1567 57.1114 56.0058L57.1267 55.9899C57.3067 55.8097 57.5831 56.0519 57.5865 56.2437C57.5914 56.5137 57.4101 56.7224 57.194 56.8603L57.1788 56.8698L57.139 56.8938C56.9616 57.0074 57.0959 57.2448 57.2909 57.2159C57.5321 57.1802 57.7298 56.9948 57.8517 56.7633C57.9819 56.7994 58.1301 56.7951 58.2672 56.8694C58.6128 57.0567 58.4141 57.3844 58.189 57.5824L58.1799 57.5904L58.1616 57.6059C57.7487 57.9471 57.1865 58.0656 56.6566 58.091L56.626 58.0923C56.0908 58.1145 55.3934 58.122 54.9346 57.8169C54.6491 57.627 54.5664 57.3578 54.8081 57.1028C54.9447 56.9587 55.0826 56.8133 55.2247 56.6728C55.4372 56.7711 55.6271 56.7312 55.8444 56.6382C55.8723 56.6262 55.8569 56.5849 55.8296 56.5849C55.7096 56.5848 55.2696 56.3691 55.2482 56.2312C55.2284 56.1036 55.4718 55.9961 55.5902 55.9344L55.6074 55.9253L55.6223 55.9169C55.7461 55.8442 55.8626 55.7596 55.9692 55.6646C56.2396 55.4234 56.436 55.1209 56.5217 54.7898L56.5292 54.7596Z" fill="white"/>
<path fill-rule="evenodd" clip-rule="evenodd" d="M30.6159 35.4962C30.8587 34.9049 31.6794 35.1348 31.5879 35.7559C31.5331 36.1279 31.3229 36.5209 31.134 36.847C30.9802 37.1124 30.8047 37.3714 30.5669 37.5704C30.9903 37.9532 31.4298 38.322 31.8805 38.6722C32.3722 39.0543 32.8893 39.4065 33.4237 39.7302C33.8924 40.0141 34.3823 40.2656 34.824 40.5895C35.2348 40.8907 35.609 41.2528 35.7994 41.7256C36.0023 42.2291 35.9141 42.7491 35.7648 43.2522L35.7476 43.3091C35.595 43.8075 35.3308 44.4084 35.6971 44.8781C35.8836 45.1171 36.1547 45.2865 36.3888 45.4776C36.5968 45.6475 36.7921 45.8322 36.9712 46.0307C37.3617 46.4633 37.6794 46.9501 37.8798 47.4924L37.8977 47.5417C38.0695 48.0218 38.1951 48.61 37.9629 49.0814C37.8963 49.2166 37.6815 49.1726 37.6442 49.0411C37.5599 48.743 37.5643 48.4308 37.4936 48.1285C37.42 47.8141 37.2975 47.5157 37.1376 47.2334C36.8282 46.6872 36.4091 46.2206 35.914 45.8262L35.7658 45.7094C35.3796 45.4022 35.0247 45.0764 34.9463 44.5681C34.8624 44.0242 35.0873 43.5061 35.2319 42.9913C35.3327 42.6326 35.3656 42.2887 35.2567 41.9645C35.1236 42.1749 34.9421 42.3746 34.7986 42.5528C34.5127 42.9077 34.2241 43.2605 33.9362 43.6139C33.6411 43.9763 33.3532 44.3444 33.0791 44.722C32.9564 44.891 32.8351 45.0609 32.7142 45.231C32.6233 45.3589 32.4965 45.4866 32.3974 45.6171C32.4215 45.6868 32.4197 45.7672 32.376 45.8243C31.8505 46.5124 31.1028 45.0767 30.9078 44.7139C30.5107 43.9752 30.2152 43.1904 29.8168 42.4519C29.4039 41.6863 28.9338 40.9411 28.4099 40.2421C28.0929 39.8193 27.7377 39.4222 27.4478 38.986C26.7648 39.5862 25.866 39.9885 25.0405 40.3533C24.1334 40.7541 23.1911 41.0815 22.2611 41.4292L21.9864 41.5326C20.384 42.1386 18.7425 42.8044 17.4106 43.8808C15.8455 45.1457 14.9196 46.9087 14.2303 48.7343C13.4368 50.836 12.7803 52.9945 12.1683 55.1515C11.8552 56.2552 11.5581 57.3639 11.2787 58.4761C11.0326 59.4559 10.8285 60.4455 10.5436 61.4153C11.1215 61.3955 11.7806 61.6123 12.274 61.6749C14.5226 61.9601 16.7409 62.4148 18.8639 63.202C19.1261 63.2992 19.202 63.553 19.1449 63.7587C19.2961 63.7173 19.4473 63.6754 19.5985 63.6343C19.4328 63.3883 19.5119 62.9485 19.5249 62.6758L19.5257 62.657C19.5391 62.2937 19.5798 61.93 19.6061 61.5673C19.6564 60.8759 19.7218 60.1896 19.8087 59.5022L19.8309 59.3303C19.9294 58.5825 20.0023 57.8302 20.1098 57.0836L20.1225 56.9982C20.0709 56.8072 20.0109 56.6185 19.9479 56.4306C19.78 55.9302 19.5431 55.4592 19.3354 54.9745C19.311 54.9175 19.3948 54.8847 19.434 54.9189C19.7857 55.2255 20.065 55.6144 20.2895 56.0212C20.2933 56.002 20.2968 55.9827 20.3008 55.9635L20.3264 55.8414C20.3896 55.5435 20.4664 55.2301 20.655 54.9886C20.675 54.9629 20.7148 54.9575 20.7338 54.9886C20.9142 55.2845 20.9344 55.6593 20.9622 55.996C20.9936 56.3769 20.9975 56.7626 20.992 57.1446C20.9812 57.8911 20.9269 58.6397 20.8836 59.3849C20.8412 60.1173 20.7578 60.8404 20.6504 61.5655L20.63 61.7015C20.5775 62.0467 20.5345 62.3961 20.4653 62.7389L20.4457 62.8322C20.4087 63.0022 20.3859 63.2419 20.3122 63.4411C22.2083 62.9286 24.1073 62.4278 26.01 61.9358C27.3851 61.5801 28.7617 61.2298 30.1376 60.8773C30.2102 60.7505 30.3007 60.6321 30.4135 60.5262C30.7852 60.1773 31.2779 60.0217 31.7297 60.2902C31.7665 60.3121 31.7696 60.3679 31.7297 60.389C31.6432 60.4349 31.5564 60.4819 31.4712 60.5309L32.2975 60.3141C32.915 60.1519 33.54 59.9492 34.172 59.8362C35.3363 59.2794 36.5884 58.8764 37.8148 58.4782L37.9594 58.4308C38.5873 58.2233 39.2368 57.9911 39.8856 57.8761C40.3606 57.7919 40.9181 57.8935 41.1091 58.365C41.3509 58.5194 41.5784 58.7009 41.798 58.8794C41.9567 59.0084 42.1089 59.1455 42.2636 59.279L42.2921 59.3033C42.4186 59.4096 42.5188 59.4808 42.5498 59.6501C42.5659 59.7375 42.5085 59.8557 42.3972 59.8442C42.0567 59.8088 41.7798 59.4264 41.5489 59.198C41.3705 59.0214 41.1907 58.8389 41.0278 58.6449C40.9329 58.695 40.8028 58.686 40.7424 58.5751C40.429 58.0002 39.5707 58.3985 39.0958 58.5349L38.4155 58.73C38.0753 58.8277 37.7353 58.9259 37.3959 59.0258C36.463 59.3003 35.5347 59.6076 34.5933 59.8597C34.6776 59.9494 34.666 60.109 34.506 60.1697C33.7691 60.4499 32.9607 60.5947 32.1952 60.787C31.7119 60.9085 31.2288 61.0307 30.746 61.1536C30.6632 61.2836 30.6036 61.4306 30.5786 61.6018C30.4864 62.2311 30.6641 62.9573 30.8372 63.566L30.8633 63.6568C31.0056 64.1462 31.215 64.7461 31.6507 65.0551C31.7571 65.1305 31.8925 65.1829 32.029 65.1948C32.882 64.7693 33.7349 64.3439 34.5883 63.9193C34.7464 63.8407 34.8925 63.9472 34.928 64.0738C35.2289 64.026 35.5291 63.9506 35.8025 63.8606C36.262 63.7094 36.6208 63.421 37.0515 63.2216C37.8849 62.8358 38.7361 63.3097 39.4823 63.67L39.6543 63.7519C39.9889 63.9092 40.6851 64.2115 40.8456 63.7812C41.0009 63.3649 40.5099 62.92 40.1928 62.7326C39.8149 62.5092 39.3747 62.3897 38.9475 62.2901C38.7036 62.2332 38.4567 62.1868 38.2083 62.1529C37.9266 62.1145 37.6356 62.1203 37.3643 62.0317C37.2295 61.9878 37.2088 61.7803 37.3643 61.746C37.7819 61.6539 38.2803 61.7544 38.7161 61.8571L38.9438 61.9114C39.3829 62.0158 39.8261 62.1469 40.226 62.3551C40.5168 62.5066 40.8237 62.7367 41.0242 63.0184C41.1983 62.8617 41.415 62.867 41.6408 62.9251L41.7633 62.9581C41.9656 63.0124 42.1296 63.0498 42.3265 63.0122C42.3528 62.8734 42.3794 62.7345 42.408 62.5957C42.6885 61.2309 42.9962 59.8714 43.3357 58.5191C43.9212 56.1866 44.5988 53.8796 45.3627 51.5964L45.4394 51.3681C45.6155 50.8459 45.7573 50.2769 46.0414 49.7971C46.31 49.3434 46.7404 49.0821 47.2517 48.9437C47.8321 48.7867 48.4418 48.7045 49.0338 48.5984C49.1659 48.5748 49.2983 48.5524 49.4304 48.5291C49.3187 48.3337 49.2354 48.1118 49.1603 47.9416L49.1471 47.9121C48.9858 47.5557 48.8408 47.1928 48.7009 46.828L48.5962 46.5537C48.3435 45.8933 48.0826 45.2437 47.7273 44.6261C47.3534 43.976 46.8572 43.4445 46.2388 43.0047C44.9778 42.1078 43.4579 41.6503 42.2348 40.6918C42.1847 40.6525 42.249 40.5854 42.2998 40.6102C43.1257 41.0123 44.0172 41.2857 44.8762 41.6131L45.0456 41.6779C45.7245 41.9387 46.414 42.2226 47.0016 42.6448C47.6568 43.1157 48.1728 43.7004 48.5606 44.3958C48.9428 45.0812 49.1873 45.8484 49.457 46.5806L49.5291 46.7756C49.6379 47.0682 49.7502 47.3598 49.879 47.6445C49.9812 47.8705 50.1719 48.1285 50.2586 48.3866C50.4957 48.3468 50.7329 48.3068 50.9703 48.2684C56.1123 47.4364 61.3118 46.9476 66.5228 46.8046C66.7267 46.799 66.8321 46.9875 66.8021 47.1599C66.302 50.0254 65.8576 52.9008 65.37 55.7685C65.1571 57.0201 64.94 58.2707 64.7179 59.5208C64.6053 60.1541 64.4752 60.785 64.3686 61.4192C64.2825 61.9315 64.2201 62.4477 64.0723 62.948C63.9398 63.3966 63.7365 63.8292 63.4025 64.1715C63.0425 64.5405 62.54 64.719 62.0342 64.8034C60.7501 65.0176 59.4331 65.105 58.1386 65.2477L51.2468 66.0075C51.3476 66.8945 51.3551 67.7678 51.3089 68.6652L51.2825 69.1551C51.261 69.5491 51.2353 69.9438 51.1769 70.3338C51.1036 70.823 50.8727 71.2372 50.5325 71.6026C50.2202 71.9382 49.8407 72.2245 49.4716 72.4988C49.0885 72.7837 48.6926 73.0587 48.2421 73.2348L48.1836 73.2573C47.7884 73.4069 47.0471 73.6384 46.5069 73.5538C46.5775 73.8966 46.7141 74.2652 46.593 74.6044C46.5368 74.762 46.3242 74.8405 46.194 74.7065C45.936 74.4409 45.9159 74.09 45.8548 73.7435C45.7912 73.3828 45.7364 73.0209 45.6877 72.6581C45.5935 71.9567 45.5202 71.2488 45.4978 70.5414C45.4748 69.8149 45.4837 69.0875 45.5241 68.3618C45.5449 67.9891 45.5706 67.6167 45.6194 67.2464C45.6403 67.0885 45.6615 66.9305 45.6859 66.773C45.6947 66.7155 45.7046 66.6584 45.7151 66.6013L45.0966 66.6689C44.1481 66.7715 43.1991 66.8642 42.2439 66.8786C42.1308 66.8803 42.0438 66.8303 41.9869 66.7577C41.9263 66.8533 41.8208 66.9217 41.6697 66.9212C40.3358 66.9163 39.0936 66.4937 37.8803 65.9955C37.2688 65.7444 36.6667 65.4725 36.0542 65.2234C35.4826 64.991 34.8714 64.8252 34.3135 64.5633L32.8476 65.3084C32.8369 65.3451 32.8231 65.3797 32.8084 65.4087C32.713 65.5975 32.5248 65.7 32.3326 65.7771C32.1481 65.8513 31.9571 65.8743 31.7709 65.8556C30.6592 66.4202 29.5471 66.9842 28.4344 67.5469L27.3214 68.1091C25.1038 69.228 22.895 70.3652 20.6635 71.4578L20.4992 71.5379C19.7284 71.9124 18.9008 72.2921 18.0454 72.5754C18.0302 72.7852 18.0398 72.9892 18.0579 73.2113L18.0623 73.2597C18.0878 73.5221 18.1425 73.8509 17.9252 74.0377C17.8122 74.1349 17.6104 74.1353 17.5335 73.9888C17.3941 73.7231 17.5193 73.3043 17.5635 73.0157C17.5791 72.9131 17.5982 72.8076 17.6265 72.7052C16.6459 72.9881 15.6356 73.1253 14.6377 72.9664C13.6661 72.8119 12.9137 72.2188 12.307 71.4933C11.6668 70.7278 11.2119 69.8356 10.9678 68.8792C10.69 67.7909 10.6719 66.6669 10.6784 65.5522C10.6853 64.3651 10.7306 63.1722 10.8796 61.9931C10.7164 61.9559 10.5353 61.9237 10.3704 61.9348C10.2887 62.0615 10.1302 62.1149 9.98695 62.0984C9.67551 62.4313 10.4655 62.7714 10.7179 62.8566C10.8056 62.8862 10.7962 63.0241 10.6951 63.02L10.6314 63.0171C10.2413 62.9969 9.83832 62.9324 9.60897 62.5811C9.42518 62.2996 9.4804 61.966 9.69949 61.7364C9.84419 60.4105 10.1901 59.1195 10.5121 57.8261C10.8281 56.5567 11.1794 55.2954 11.5519 54.0404L11.7188 53.4787C12.3052 51.511 12.9182 49.5274 13.727 47.6379C14.1309 46.6944 14.5962 45.7683 15.2269 44.9456C15.8149 44.1787 16.509 43.5225 17.3068 42.962C18.7942 41.9171 20.5395 41.2857 22.2544 40.6842L22.3311 40.6573C23.2198 40.3458 24.1063 40.0306 24.9848 39.6931C25.7618 39.3946 26.5061 39.0162 27.2794 38.7132C27.2543 38.669 27.23 38.6243 27.2067 38.5791L27.1924 38.5908C27.1899 38.5927 27.1874 38.5945 27.1848 38.5962C27.1071 38.6484 26.9926 38.6228 26.9285 38.5642C26.7475 38.3987 26.8088 38.215 26.9296 38.0434L26.9453 38.0216C27.0931 37.8211 27.2248 37.609 27.3612 37.4012L27.4466 37.2713C27.6754 36.9241 27.9159 36.5746 28.2211 36.2876C28.3624 36.1547 28.5172 36.0552 28.6811 35.9811C28.6671 35.9523 28.79 35.8936 28.8248 35.9232C29.3442 35.739 29.9417 35.7776 30.508 35.8284M50.9134 66.0442L50.1913 66.1237C49.3969 66.2113 48.6021 66.296 47.8073 66.3799L46.0809 66.5617C46.0765 66.6571 46.0645 66.7503 46.0624 66.8224C46.0511 67.1937 46.0427 67.5652 46.0347 67.9366C46.0188 68.6812 46.0363 69.4264 46.0868 70.1695C46.1359 70.8896 46.2004 71.6097 46.3008 72.3249L46.3213 72.4678L46.3332 72.543C46.4151 72.5507 46.4956 72.5884 46.5624 72.6659C46.7085 72.8348 47.2372 72.6706 47.4437 72.5994C47.7833 72.4823 48.1031 72.2844 48.3982 72.086C48.6863 71.8923 48.9458 71.6664 49.1952 71.4285L49.3992 71.233C49.6021 71.0376 49.8053 70.8294 49.9296 70.5835C50.0982 70.2502 50.12 69.841 50.1695 69.4779C50.2304 69.0314 50.3029 68.5849 50.3795 68.1405M29.9512 61.3566L29.8763 61.3757C27.1555 62.0762 24.4388 62.7975 21.7096 63.4671C20.359 63.7986 19.002 64.1059 17.6498 64.431L17.4309 64.4841C16.3641 64.7453 15.2845 65.0598 14.4676 65.8096C14.4374 65.8372 14.3937 65.7948 14.4221 65.7654C15.3025 64.8572 16.5546 64.4727 17.7569 64.1395C17.9791 64.0779 18.2017 64.0177 18.424 63.9564C16.7889 63.3916 15.128 62.9002 13.4288 62.5497C12.9913 62.4594 12.5486 62.3932 12.1114 62.3026C11.8065 62.2393 11.5087 62.1479 11.207 62.0721L10.9697 62.0143L10.9666 62.7411C10.9626 63.7704 10.9645 64.799 11.0187 65.8282L11.029 66.0189C11.0922 67.1642 11.1909 68.3334 11.6103 69.4134C11.9512 70.291 12.4945 71.1178 13.205 71.757C13.5645 72.0804 13.951 72.3322 14.4288 72.4565C14.8724 72.5719 15.3371 72.5855 15.7932 72.5547C17.9806 72.4068 19.9277 71.2553 21.8278 70.302C24.9357 68.7427 28.044 67.1841 31.1551 65.6308C31.071 65.575 30.9918 65.5108 30.9198 65.4387C30.5026 65.0212 30.2825 64.4496 30.138 63.8961C29.9841 63.3069 29.8921 62.6754 29.8814 62.0672M33.9097 66.2327C33.9372 66.2184 33.969 66.2363 33.9702 66.2663C33.9799 66.4966 33.8485 66.7237 33.7504 66.9311L33.74 66.9533C33.6209 67.2102 33.4903 67.4637 33.3554 67.7132C33.0856 68.2118 32.8052 68.705 32.5126 69.1912C31.9242 70.1693 31.2703 71.1062 30.4974 71.9579C30.3228 72.1503 30.0357 71.9036 30.1477 71.6965C30.6879 70.6979 31.3175 69.755 31.9657 68.8203C32.2902 68.3524 32.6145 67.884 32.9421 67.4181C33.0788 67.2237 33.2173 67.03 33.3595 66.8393L33.4453 66.7252M66.1783 47.3765C63.448 47.4564 60.7209 47.629 58.0036 47.8994C55.4765 48.1509 52.9586 48.4856 50.455 48.9029C49.9321 48.99 49.4098 49.0808 48.8882 49.1751L48.5753 49.2321C48.0536 49.3279 47.4162 49.3674 46.9517 49.6375C46.462 49.9222 46.3296 50.5173 46.1667 51.008C45.9751 51.5851 45.7884 52.1638 45.6067 52.744C44.8853 55.0474 44.2263 57.3708 43.6385 59.7095C43.3467 60.8704 43.0877 62.0378 42.8149 63.2029C42.5726 64.2381 42.3051 65.2616 42.0257 66.2864C42.0602 66.2605 42.1024 66.2407 42.1534 66.2302C43.5408 65.9442 44.957 65.8198 46.3652 65.6618L46.5014 65.6464C47.9582 65.4804 49.4149 65.3156 50.8725 65.1568L60.5229 64.1051C61.092 64.0431 61.7017 64.0347 62.2556 63.8867C63.1973 63.635 63.418 62.6148 63.576 61.8023L63.5808 61.7778C64.0571 59.323 64.4363 56.8468 64.8805 54.3858M42.2503 63.4328C41.8756 63.4088 41.3628 63.0763 41.0786 63.1002C41.2278 63.3428 41.2952 63.6195 41.2092 63.9151C40.9698 64.7375 39.8874 64.312 39.366 64.0607C38.9386 63.8546 38.5258 63.6025 38.0525 63.5059C37.5164 63.3967 37.1532 63.6033 36.7002 63.8414C36.3282 64.037 35.923 64.1774 35.5064 64.2501C35.2848 64.2888 35.0744 64.2929 34.8643 64.2779C34.8517 64.2878 34.8374 64.2971 34.8212 64.3054L34.7101 64.3619C35.2125 64.3841 35.7243 64.5344 36.1919 64.672C36.6764 64.8144 37.152 64.9862 37.6252 65.1619L38.0906 65.3353C39.2387 65.7613 40.4272 66.1659 41.6697 66.1623C41.759 66.1621 41.8322 66.1861 41.8898 66.2251M40.1541 60.856C40.5242 60.8121 40.8659 60.8591 41.1616 61.0926C41.5183 61.3742 41.7579 61.8411 42.2707 61.8718C42.4203 61.8807 42.455 62.0844 42.3064 62.127C41.9247 62.2365 41.6156 62.0364 41.3556 61.7766L41.1807 61.5996C40.9237 61.3417 40.6867 61.1423 40.2506 61.1577C39.7836 61.1743 39.3158 61.2788 38.8518 61.332C38.3262 61.3922 37.8007 61.4436 37.2735 61.4879C37.249 61.4899 37.2448 61.4526 37.2677 61.4471L37.8583 61.3046M39.7968 59.3896L39.8578 59.3837C40.3953 59.3331 40.8869 59.3311 41.3669 59.6113L41.459 59.6653C41.8918 59.9202 42.3628 60.2205 42.6335 60.6332C42.6778 60.7008 42.6046 60.7803 42.5305 60.7631C42.0103 60.6421 41.63 60.2723 41.1926 59.9955C40.7017 59.6848 40.1945 59.7361 39.6348 59.7843C39.0928 59.8311 38.5511 59.8953 38.0145 59.9828C37.5102 60.065 37.0043 60.1947 36.495 60.2361L36.4951 60.2351C36.4369 60.235 36.4037 60.1503 36.4631 60.1216C36.98 59.8715 37.5786 59.7531 38.1409 59.6388M56.1249 54.2416C56.0729 54.0008 56.3786 53.8892 56.5202 54.0802L56.5504 54.1205C56.8564 54.5268 57.2991 55.0367 57.2766 55.5535C57.5456 55.5592 57.8245 55.7176 57.9294 55.9528C57.9778 56.0617 57.9942 56.1907 57.9835 56.3242C58.2281 56.3426 58.4948 56.4982 58.6443 56.6496C58.8921 56.9008 58.9117 57.2556 58.7339 57.549C58.3463 58.1887 57.4995 58.4213 56.7847 58.4733L56.7592 58.4751C56.0208 58.5245 54.9569 58.5112 54.4507 57.8973C53.9623 57.3052 54.502 56.8258 55.0555 56.5655C54.9114 56.438 54.8368 56.2552 54.907 56.0624C55.0302 55.7236 55.4651 55.5927 55.7108 55.3571C56.0104 55.0699 56.2084 54.676 56.1294 54.2641M56.5307 54.7623C56.4492 55.1052 56.2492 55.4188 55.9706 55.6673C55.8641 55.7624 55.7475 55.847 55.6237 55.9197L55.6088 55.9281C55.4989 55.9878 55.2288 56.0998 55.2496 56.234C55.271 56.3718 55.7111 56.5875 55.831 56.5877C55.8583 56.5877 55.8737 56.629 55.8459 56.6409C55.6285 56.734 55.4386 56.7738 55.2261 56.6755C55.0841 56.816 54.9461 56.9614 54.8095 57.1055C54.5678 57.3605 54.6505 57.6298 54.936 57.8196C55.3948 58.1247 56.0922 58.1173 56.6275 58.0951C57.1662 58.0728 57.7421 57.9564 58.163 57.6086L58.1813 57.5931C58.41 57.396 58.6189 57.062 58.2687 56.8722C58.1315 56.7978 57.9833 56.8022 57.8531 56.766C57.7312 56.9975 57.5335 57.1829 57.2923 57.2187C57.0973 57.2476 56.9631 57.0101 57.1404 56.8966L57.1803 56.8726C57.4029 56.7348 57.593 56.5227 57.5879 56.2464C57.5845 56.0547 57.3081 55.8124 57.1281 55.9926L57.1198 56.0012C56.9692 56.1658 56.7038 55.9584 56.8029 55.7761L56.8076 55.7678M21.3918 45.2266C21.3911 45.1854 21.4509 45.17 21.4718 45.2057C21.8215 45.8019 22.0043 46.5327 22.1906 47.1896C22.3857 47.8777 22.5433 48.5728 22.6848 49.273C22.9714 50.6908 23.1241 52.1005 23.1344 53.5455C23.1359 53.7519 22.789 53.8068 22.7551 53.5953C22.5298 52.1897 22.314 50.7826 22.087 49.3774C21.9728 48.6706 21.8399 47.9665 21.7127 47.2619M24.854 46.2651C24.8282 46.1829 24.9517 46.1554 24.9833 46.2306C25.6851 47.9 25.9228 49.792 25.4722 51.5533C25.4033 51.8227 24.996 51.706 25.0481 51.4399M33.9069 44.7817C33.9034 44.7202 33.9858 44.7105 34.0169 44.7528C34.3494 45.2069 34.4874 45.815 35.0708 46.0496C35.3621 46.1668 35.6899 46.1464 35.9473 46.3443C36.1194 46.4766 36.2513 46.6855 36.1222 46.886C36.0805 46.9507 35.9639 46.9832 35.9074 46.9128C35.8249 46.8103 35.7812 46.6875 35.6691 46.6107C35.511 46.5023 35.2978 46.4956 35.1166 46.4446C34.8821 46.3787 34.6754 46.2635 34.5061 46.0922M39.4627 37.2086C39.497 37.1917 39.5299 37.2025 39.5518 37.2312C39.5831 37.2721 39.5792 37.3119 39.5409 37.34C39.5921 37.4414 39.6526 37.6954 39.6612 37.7324C39.6963 37.8824 39.7335 38.0314 39.7725 38.1803C39.8511 38.4807 39.92 38.7834 39.9987 39.0838C40.0821 39.4023 40.1815 39.7174 40.2921 40.028C40.2992 40.0481 40.3071 40.0686 40.3153 40.0894L40.3279 40.1209L40.331 40.1161C40.3535 40.0817 40.4003 40.1058 40.3947 40.1421C40.3896 40.1753 40.3826 40.2083 40.3768 40.2414L40.3884 40.2712C40.4607 40.4598 40.5103 40.6586 40.3776 40.8251C40.3279 40.8873 40.2732 40.9242 40.2052 40.9352C40.096 41.284 39.959 41.6262 39.8124 41.9549L39.7694 42.0509C39.5537 42.5305 39.3236 43.0039 38.9801 43.4122C38.6051 43.858 38.0893 44.1624 37.7626 44.6509C37.6107 44.8781 37.5049 45.117 37.4191 45.3736L37.3868 45.471C37.3259 45.6525 37.2556 45.8284 37.0799 45.9349C37.0238 45.9688 36.9398 45.958 36.8946 45.9117C36.5343 45.5424 36.9115 44.8527 37.1288 44.4952C37.4308 43.9979 37.8678 43.6798 38.3055 43.3047C38.7773 42.9003 39.0782 42.3594 39.3693 41.8265C39.5475 41.5 39.7197 41.1665 39.9009 40.8386C39.7116 40.6764 39.6509 40.3543 39.5868 40.1304L39.581 40.1104C39.4749 39.7519 39.3907 39.384 39.3375 39.0146C39.2863 38.6594 39.2649 38.3092 39.2785 37.952L39.2824 37.861M40.1666 38.8992C40.1248 38.8437 40.194 38.7807 40.2514 38.7923C40.6003 38.8623 40.9415 39.0669 41.2546 39.2324L41.2881 39.25C41.5381 39.3806 41.7896 39.5406 41.9209 39.7944C42.0636 40.0702 42.0519 40.3879 42.0324 40.6877L42.0306 40.7157C42.0067 41.0752 42.0029 41.4487 41.9244 41.8017C41.8842 41.9823 41.7153 42.0332 41.571 41.9905C41.3992 42.5161 40.9167 42.9033 40.5642 43.3181C40.1148 43.8468 40.1994 44.5607 40.2464 45.1975C40.2654 45.4553 39.9344 45.5286 39.764 45.3911L39.3711 45.0749C39.3057 45.0221 39.2404 44.9692 39.1752 44.9162C39.1194 44.8707 39.0641 44.8248 39.0093 44.7784L38.9274 44.7083C38.891 44.6768 38.7308 44.5033 38.6839 44.4961C38.5704 44.4786 38.3007 44.7685 38.2084 44.8594L38.1968 44.8707C38.023 45.0358 37.8661 45.2134 37.7199 45.4018C37.693 45.4364 37.6404 45.4076 37.6596 45.3677C37.7906 45.0957 37.943 44.8358 38.1238 44.5924L38.1604 44.544C38.2807 44.3869 38.4422 44.1094 38.6546 44.063C38.914 44.0064 39.1729 44.2584 39.3616 44.3983L39.3736 44.407C39.4633 44.4723 39.5521 44.5387 39.6407 44.6056C39.6314 44.1315 39.6932 43.6524 39.9458 43.2438C40.1239 42.9557 40.3908 42.7423 40.6192 42.4946C40.8734 42.2189 41.0061 41.88 41.2363 41.5928C41.2659 41.5559 41.3067 41.536 41.351 41.5297C41.3598 41.2988 41.3949 41.0657 41.422 40.8373L41.4299 40.769C41.4573 40.5208 41.5221 40.2178 41.3967 39.9854C41.2783 39.7659 41.0066 39.611 40.8054 39.462L40.6411 39.3386M28.8423 36.2756C28.7372 36.3345 28.639 36.4077 28.5499 36.4993C28.2695 36.7875 28.069 37.1463 27.8739 37.4914C27.7689 37.6772 27.6676 37.8651 27.5617 38.0506C27.5156 38.1312 27.4682 38.211 27.4203 38.2907C27.3982 38.3274 27.3324 38.4004 27.2998 38.4453C27.336 38.4945 27.3735 38.543 27.4117 38.5909C27.4263 38.6092 28.4322 39.6711 28.7829 40.0867C29.3198 40.7233 29.7998 41.3957 30.2101 42.1154C30.6119 42.8201 30.9178 43.5664 31.29 44.2848C31.4763 44.6445 31.6843 45.0016 31.9495 45.3129C31.9598 45.325 31.9706 45.3365 31.981 45.3485C32.0823 45.0835 32.3416 44.7998 32.469 44.6369L32.4809 44.6215C32.7698 44.2441 33.0749 43.8781 33.3866 43.5183C33.6713 43.1898 33.9633 42.8683 34.2623 42.5522L34.3748 42.4339C34.5831 42.2158 34.8477 41.8895 35.1527 41.7337C35.12 41.6773 35.0822 41.6214 35.0387 41.5663C34.753 41.2045 34.3491 40.9419 33.9505 40.705L33.692 40.5526C32.7177 39.9772 31.7586 39.3752 30.9127 38.6276C30.4652 38.2321 30.0239 37.8177 29.6477 37.3564L29.5147 37.1932M30.468 35.9908C30.0117 36.0279 29.519 36.019 29.0973 36.1631C29.4722 36.5065 29.8285 36.8772 30.1945 37.2264C30.2271 36.9902 30.2937 36.757 30.3501 36.5267" fill="black"/>
<path fill-rule="evenodd" clip-rule="evenodd" d="M45.1852 25.6825C45.1624 24.4404 45.1373 23.1735 44.9472 21.9434C44.7613 20.7409 44.2499 19.6539 43.371 18.7807C41.5043 16.9258 38.7985 16.4728 36.2798 16.0576L31.9735 15.3477C30.6598 15.1312 29.2582 14.7851 27.9309 15.0921C27.2768 15.2435 26.7214 15.595 26.2137 16.0109C25.7244 16.4118 25.1983 16.8423 24.8667 17.3816C24.5346 17.9217 24.4203 18.5531 24.3123 19.1639C24.1906 19.8526 24.0959 20.5467 24.0287 21.2425C23.8941 22.6364 23.8757 24.0408 23.9734 25.4376C24.0207 26.1151 24.096 26.7907 24.1922 27.4633C24.2398 27.7968 24.2937 28.1295 24.3546 28.461C24.3725 28.5587 24.3862 28.667 24.4046 28.7763C24.2687 29.1515 24.1915 29.54 24.1978 29.9268C24.2161 31.0664 25.2066 31.7838 26.2051 32.169C26.784 32.3923 27.3893 32.5441 27.9582 32.7936C28.5566 33.056 28.964 33.4815 29.3731 33.9668C30.1535 34.8924 31.0341 35.7243 32.0397 36.4184C34.1716 37.89 36.8718 38.5861 39.4586 38.0578C40.0792 37.931 40.7054 37.7342 41.2633 37.4376C41.8523 37.1245 42.2952 36.6708 42.6671 36.1343C43.3577 35.1384 43.853 34.017 44.2276 32.8759C44.6098 31.7118 44.8811 30.5457 45.029 29.3319C45.1764 28.122 45.2075 26.8999 45.1852 25.6825V25.6825Z" fill="#FFD1B0"/>
<path fill-rule="evenodd" clip-rule="evenodd" d="M31.4435 11.0208C33.2255 10.7828 35.6851 11.5564 36.5726 13.1164C40.8096 12.1464 46.1535 12.1146 49.6456 15.3437C53.2896 19.1741 48.7126 24.2244 45.6777 25.3631C45.8987 26.4059 45.5541 33.0864 43.1164 36.0663C41.1817 38.5911 36.6763 39.7563 34.5915 36.7406L34.5752 36.7157C34.3518 36.3675 34.5442 36.3786 34.7735 36.6377C36.815 38.3811 39.5906 38.4108 41.7296 36.571C45.7383 33.2082 45.325 24.9627 43.4174 20.1925C37.9857 19.6132 32.1701 21.2119 28.4185 25.1824L28.6722 26.6655C28.7154 26.9182 28.7645 27.1706 28.802 27.4242C28.826 27.5866 28.8287 27.7482 28.7128 27.8797C28.33 28.3139 27.685 27.6615 27.1543 27.402C26.9976 27.3806 26.8406 27.3723 26.6867 27.3829C24.1368 27.7018 24.6392 32.5051 27.4417 31.6632C27.6772 31.5207 27.8795 31.5642 27.9708 31.7709C28.6388 32.3651 29.0793 33.4248 30.1891 34.4455C30.5806 34.8283 30.937 35.1486 31.3774 35.4557C31.6362 35.7098 32.4168 35.9689 32.1693 36.4036C31.7014 37.3929 28.9418 34.2854 28.4539 33.426C26.9252 34.0122 25.2311 33.8131 23.6469 33.6698C15.2896 33.2479 16.4053 24.693 23.2556 19.2918C24.5451 18.37 25.9678 17.6179 27.4467 17.0392C27.6486 16.9602 27.5604 16.6383 27.3556 16.7184C26.3771 17.1014 25.4231 17.5572 24.5138 18.0848L24.5124 17.7694C24.5111 17.2381 24.5197 16.6851 24.6147 16.1997C24.6622 15.8633 24.7421 15.5041 24.8651 15.2338C25.0171 14.4053 27.3989 11.5613 31.4435 11.0208ZM26.5752 28.4856C26.7042 28.3666 26.9451 28.5085 27.06 28.505C27.3538 28.544 27.6328 28.6645 27.8505 28.8132C27.9942 28.8914 28.0949 28.9648 28.1791 29.0323L28.1814 29.0317C28.1808 29.0317 28.18 29.0323 28.1793 29.0325L28.1872 29.0377C28.3097 29.1222 28.7583 29.5985 28.4749 29.4704C28.4538 29.4437 28.4322 29.4181 28.4103 29.393C28.408 29.3964 28.4047 29.3998 28.4009 29.4031L28.4168 29.426C28.6577 29.7779 28.2418 29.4072 28.1778 29.3087C28.1748 29.3111 28.1713 29.3127 28.168 29.3144L28.2513 29.4129C28.2629 29.4269 28.2721 29.4381 28.2797 29.4475L28.2973 29.464C28.5758 29.7298 28.5845 29.9691 28.2609 29.576C28.2737 29.5946 28.2839 29.6142 28.2853 29.6316L28.3045 29.6553C28.5585 29.9732 28.3519 29.8603 28.2256 29.7246L28.2151 29.7129L28.2172 29.7161C28.3347 29.8918 28.1017 29.7685 28.0605 29.6745L28.0587 29.6702C28.0139 29.6347 27.9863 29.5948 27.9768 29.5847L27.975 29.583C27.7566 29.3657 27.4399 29.1818 27.1709 29.0982C27.1319 29.091 27.0925 29.0852 27.0526 29.0811C26.8909 29.0461 26.7273 29.0221 26.5621 29.0091C26.5419 29.0068 26.5214 28.9923 26.5061 28.9737C26.2562 28.9655 26.3333 28.8661 26.437 28.8476L26.4388 28.8473L26.4183 28.8456C26.2579 28.8304 26.1484 28.7745 26.3105 28.7403L26.3311 28.7363C26.3286 28.7325 26.3263 28.7286 26.3242 28.7248C26.1853 28.71 26.2759 28.5789 26.353 28.6106C26.3206 28.5077 26.4688 28.5591 26.4873 28.5438C26.5014 28.5286 26.5189 28.5152 26.529 28.5144C26.5737 28.4838 26.552 28.4866 26.5752 28.4856ZM27.4248 26.8186L27.3923 26.837C27.3659 26.852 27.3389 26.8619 27.3117 26.8677C27.3501 26.8836 27.388 26.9007 27.4255 26.919C27.4249 26.8966 27.4244 26.8743 27.4244 26.852L27.4248 26.8186Z" fill="black"/>
<path fill-rule="evenodd" clip-rule="evenodd" d="M37.6947 33.971C37.6947 33.971 38.5054 34.5775 40.0172 34.5775C41.529 34.5775 42.4072 34.0349 42.4072 34.0349C42.4072 34.0349 41.082 33.2549 40.0172 33.1917C38.9524 33.1285 37.6947 33.971 37.6947 33.971Z" fill="#FF6C6C"/>
<path fill-rule="evenodd" clip-rule="evenodd" d="M35.8922 32.4292C35.8982 31.8183 36.4445 31.7129 36.9635 31.7944C37.842 31.9321 38.7239 32.029 39.6144 32.0465L39.7678 32.0491C39.7926 32.0142 39.8339 31.9877 39.8899 31.9818C40.3836 31.9302 40.8878 31.9385 41.3841 31.9243C41.8171 31.912 42.262 31.8701 42.695 31.903L42.7294 31.9059C43.2585 31.9556 43.8169 32.2173 43.753 32.819C43.6942 33.3762 43.1446 33.8694 42.7057 34.179C42.6169 34.2411 42.5262 34.2992 42.4328 34.3523C42.4035 34.3885 42.3607 34.4137 42.3114 34.4188C41.8791 34.6451 41.4022 34.7789 40.9085 34.8235C39.8619 34.9179 38.6452 34.8157 37.6399 34.3762C37.3131 34.2333 37.0082 34.0549 36.7387 33.8358C36.3231 33.4977 35.8875 32.9851 35.8922 32.4292ZM40.0732 33.5296C39.6536 33.5174 39.2347 33.5743 38.8351 33.6997C38.5643 33.7844 38.3175 33.9472 38.058 34.0604C38.9325 34.3836 39.9485 34.4541 40.8457 34.3952C41.2393 34.3694 41.6209 34.2814 41.9764 34.1302C41.921 34.0914 41.8649 34.052 41.8062 34.0177C41.6289 33.9136 41.4434 33.8251 41.2499 33.7546C40.8731 33.6176 40.4755 33.542 40.0732 33.5296ZM40.1566 28.2982C40.0434 28.2195 40.1333 27.9587 40.3752 27.999C42.5722 28.3648 41.4338 32.0321 38.6288 30.0196C38.2948 29.7586 38.6992 29.1836 39.0592 29.4071L39.187 29.5026C39.6025 29.8112 40.2898 30.2778 40.7822 29.7771C41.2471 29.1462 40.5887 28.5527 40.1566 28.2982ZM41.644 25.5227C42.111 25.1366 42.6968 25.4211 43.0406 25.8122L43.1012 25.8822C43.17 25.9619 43.2461 26.0549 43.2919 26.1542C43.6729 25.8399 44.1896 25.6186 44.684 25.7622C45.1635 25.902 45.437 26.3456 45.3546 26.8218C45.2612 27.3634 44.8383 27.7274 44.384 28.0088L44.2552 28.0881C43.7092 28.4254 43.1983 28.7652 42.7489 29.2288C42.6756 29.3042 42.5172 29.2942 42.4691 29.1939L42.4304 29.1132L42.3913 29.0325C42.0725 28.3738 41.731 27.7195 41.4506 27.0453C41.2429 26.5457 41.1754 25.9097 41.644 25.5227ZM36.3914 25.7928C36.7335 25.4068 37.3131 25.1485 37.7704 25.5227C38.2572 25.9214 38.1617 26.5806 37.9448 27.0891C37.6837 27.7023 37.3787 28.3021 37.0856 28.9036L37.023 29.0325C36.9967 29.0863 36.971 29.1401 36.9453 29.1939C36.8972 29.2942 36.7382 29.3042 36.6654 29.2288C36.23 28.7797 35.7374 28.4474 35.2113 28.1207L35.0525 28.0228C34.5907 27.7389 34.1541 27.3724 34.0591 26.8218C33.9779 26.3467 34.2497 25.9003 34.7297 25.7622C35.2252 25.6198 35.7408 25.8393 36.1224 26.1543C36.1679 26.0524 36.2462 25.9564 36.3202 25.8725L36.3914 25.7928ZM36.9463 23.1039C37.1134 23.3141 36.935 23.6578 36.6909 23.7121C36.3887 23.7795 36.0834 23.7385 35.7866 23.822C35.5147 23.8986 35.2543 24.052 35.0212 24.205C34.7555 24.3793 34.5107 24.5739 34.2857 24.7956C34.152 24.9275 33.9834 25.24 33.7771 25.2459C33.5719 25.2517 33.8473 24.6301 33.8701 24.5763C34.0318 24.1934 34.259 23.8411 34.5432 23.5325C35.104 22.9235 36.2917 22.281 36.9463 23.1039ZM43.2089 22.9356L43.3489 22.9733C43.6953 23.0666 44.0651 23.1813 44.3623 23.3825L44.3856 23.3985L44.4216 23.424C44.7947 23.6935 45.3224 24.2314 45.0582 24.7006C45.0399 24.7329 45.0013 24.7361 44.9701 24.7229C44.6186 24.5737 44.358 24.2757 43.984 24.1511L43.9151 24.1283C43.5529 24.0101 43.1049 23.8858 42.7151 23.8972C42.441 23.9835 42.0709 23.912 41.9995 23.5887L41.9963 23.5728L41.9901 23.5394C41.9491 23.3185 42.0102 23.0368 42.2459 22.9304C42.5688 22.7845 42.8838 22.8494 43.2089 22.9356Z" fill="black"/>
</svg>
