<svg width="58" height="75" viewBox="0 0 58 75" fill="none" xmlns="http://www.w3.org/2000/svg">
<path fill-rule="evenodd" clip-rule="evenodd" d="M46.5312 50.4289C46.5312 50.0345 45.9705 49.3346 45.9695 48.9774C46.4409 48.8954 46.835 48.2737 46.7305 47.8844C46.5466 47.7475 46.0644 47.478 45.8649 47.3522C44.6499 47.3881 45.1117 45.7425 44.9742 44.906C44.8357 44.0876 44.7329 43.2319 44.5302 42.4088C44.1703 41.7503 44.0014 41.012 43.6574 40.3567C43.5038 40.1396 43.2555 39.9405 43.1812 39.6882C42.4286 38.888 41.3926 38.4084 40.54 37.7307C40.8709 37.6276 40.8488 37.1931 40.8275 36.9141C40.9044 36.5502 40.8222 36.0936 40.4812 35.8886C40.366 35.5231 39.8623 35.3955 39.5677 35.6284C39.3743 34.7842 38.6173 34.272 37.8244 33.9587C37.8251 33.9563 37.8258 33.9538 37.8265 33.9513C37.0269 33.6424 36.0684 33.4884 35.2705 33.662C35.6916 29.0935 32.0973 28.9258 30.2732 29.3097C29.3401 29.5061 27.9402 30.1175 27.6221 30.9674C27.4426 31.4472 26.9273 32.9948 26.854 33.4884C25.461 32.7145 23.8461 31.6942 22.6379 33.252C22.396 33.5235 22.1283 33.7252 21.7663 33.8184C20.636 34.104 19.1357 34.1135 18.4933 35.2352C18.1093 35.9301 18.4546 36.388 18.3515 37.0832C13.2634 40.5616 9.01146 53.3759 9.96617 59.3374C10.1958 61.4708 11.3171 65.247 14.0848 64.7762C15.4964 66.2793 39.1901 66.2793 41.6333 64.7762C43.6443 65.2883 45.6878 64.4956 46.5312 62.6205C47.6022 60.0493 46.4672 57.2725 46.2661 54.6349C46.1439 53.969 45.9621 53.4404 45.8649 52.7586C45.8245 52.4745 45.9641 52.0019 45.8649 51.7401C45.9117 51.5696 46.5312 50.8232 46.5312 50.4289Z" fill="#FFD1B0"/>
<path fill-rule="evenodd" clip-rule="evenodd" d="M26.5132 33.1739L26.5967 33.2087L26.8837 33.3298L26.8235 33.4641C26.6542 33.8421 26.464 34.2057 26.2554 34.548L26.2161 34.6119L26.1558 34.7091L26.1588 34.7123C26.1848 34.7404 26.2114 34.7695 26.2385 34.7996L29.3961 38.1025C30.7281 39.4946 31.4312 40.227 31.5057 40.2998C31.8162 40.6034 32.1214 40.6413 32.4008 40.3852L32.4323 40.3562L32.484 40.3077L32.5194 40.2739C32.7017 40.0986 32.883 39.9047 33.1435 39.6122L36.0601 35.5846L35.8759 35.1839C35.5377 34.444 35.3531 34.0114 35.3219 33.8861L35.3079 33.8246L35.2788 33.6924L35.4119 33.6538C35.8921 33.5145 36.4236 33.551 37.0266 33.7247L37.0615 33.7348L37.1619 33.765C37.5705 33.8887 37.8018 33.9718 38.0387 34.0949C38.3611 34.2626 38.5991 34.4707 38.7477 34.742C38.9185 35.0542 39.0492 35.211 39.2695 35.3379L39.2867 35.3477L39.3081 35.3594L39.3306 35.3712C39.3501 35.3813 39.3717 35.3919 39.3978 35.4044L39.4902 35.4479C39.7821 35.584 39.9161 35.6712 40.0309 35.8432C40.1578 36.033 40.1793 36.2107 40.1401 36.4678L40.1366 36.4901L40.1305 36.5264L40.1066 36.66L40.101 36.6939C40.0854 36.7895 40.0829 36.8736 40.094 36.9443L40.0968 36.9603L40.1607 37.2912L40.0338 37.2128L40.3847 37.4912C40.8758 37.8825 41.1684 38.1253 41.4744 38.3991L41.559 38.4753L41.5756 38.4903C42.1271 38.991 42.5749 39.4737 42.9497 39.9891C43.3563 40.5478 43.7008 41.1589 43.979 41.8097L44.0105 41.8842L44.013 41.894C44.4297 43.4837 44.7644 45.0941 45.0163 46.72L45.0404 46.8774L45.1627 47.6843L44.7601 46.9689C44.6975 46.8576 44.524 46.7473 44.3076 46.6651L44.2872 46.6575L44.2724 46.6521L44.2415 46.6413C44.0041 46.5609 43.7647 46.5533 43.5403 46.621L43.5172 46.6282L43.4491 46.6505L43.3886 46.6128C43.2771 46.5435 43.1521 46.4848 43.0148 46.4366L42.9802 46.4247L42.8353 46.3763L42.8879 46.2363C42.9276 46.1304 42.8548 45.9226 42.7498 45.8335C42.5863 45.6954 42.3514 45.6567 41.9865 45.6828L41.937 45.6867L41.8979 45.6902L41.8391 45.6958L41.6539 45.7152L41.6539 45.716C41.6516 45.7472 41.6501 45.7758 41.6495 45.8028L41.6492 45.8227L41.6493 45.8422C41.6501 45.9093 41.656 45.9713 41.6675 46.0291L41.6727 46.0537L41.7145 46.2351L41.5235 46.2318L41.4403 46.2306C41.1614 46.2274 40.8686 46.2316 40.5239 46.2427L40.1836 46.255L39.3156 46.2908L38.5541 46.3168L38.3272 46.3241L38.3164 46.1844C38.3021 45.9999 38.1401 45.8774 37.8532 45.8231L37.8347 45.8197L37.5349 45.7669L37.7812 45.5493L37.8011 45.5311L37.8217 45.5116C38.0197 45.3197 38.0862 45.1439 38.0047 44.974C37.9093 44.7749 37.6151 44.7167 37.3449 44.8249L37.3263 44.8325L37.3072 44.8408C37.2564 44.8637 37.206 44.8925 37.1255 44.943L37.0228 45.008L36.9854 45.0312C36.8964 45.0859 36.8375 45.1167 36.763 45.1467C36.566 45.2261 36.382 45.2316 36.0802 45.1949L36.0533 45.1916L35.9892 45.1833L35.8257 45.1611L35.7852 45.1559L35.7442 45.151C35.4357 45.1152 35.2404 45.1345 35.0755 45.2371C34.9699 45.3027 34.9102 45.3867 34.818 45.5827L34.7742 45.6773L34.7549 45.7179C34.644 45.9477 34.5598 46.058 34.3941 46.1537C34.2884 46.215 34.1882 46.2516 34.0113 46.3017L33.8853 46.3371L33.8406 46.3502C33.8136 46.3584 33.7911 46.3657 33.7674 46.374C33.5747 46.4407 33.4005 46.5365 33.2366 46.6649L33.2112 46.6851L33.1836 46.7074C33.0242 46.8385 32.8879 46.9804 32.6552 47.2466L32.4857 47.4413L32.4254 47.5096L32.3756 47.5651C32.3703 47.5709 32.365 47.5768 32.3597 47.5826L32.3124 47.6339C31.9432 48.0284 31.5739 48.3921 31.1978 48.7292L31.1188 48.7995L31.0375 48.8707L30.9706 48.9285C30.7518 49.1161 30.5156 49.3059 30.1486 49.5927L29.6936 49.9475L29.5505 50.0599C29.1207 50.3988 28.8589 50.6175 28.5921 50.8643L28.5259 50.926L28.5212 50.9525C28.5186 50.9673 28.5158 50.9844 28.5128 51.0035C28.5128 51.0035 28.2523 52.5676 28.4888 53.8503C28.7252 55.133 28.809 54.6115 29.0483 54.9264L29.1038 54.9988C29.235 55.1688 29.3362 55.2891 29.4459 55.4008L29.5755 55.531L29.7246 55.6486L29.8187 55.704C29.8867 55.744 29.9546 55.7754 30.0226 55.798C30.1163 55.8294 30.2416 55.7675 30.3032 55.6585L30.309 55.6478L30.3491 55.5695L30.439 55.567C30.4601 55.5664 30.4816 55.5632 30.5026 55.5575C30.7154 55.5005 30.8213 55.2537 30.7172 55.0622L30.7115 55.0519L30.6576 54.9587L30.6299 54.9119C30.5902 54.8457 30.5535 54.7897 30.5164 54.7404L30.5025 54.7222L30.2955 54.4573L30.8165 54.5046L30.8591 54.5087L30.9176 54.5147L31.1052 54.5355C31.3005 54.5568 31.4891 54.5761 31.673 54.5937L31.8296 54.6082L32.1035 54.6326L32.1597 54.6381L32.2814 54.6506L32.5729 54.6813L32.6767 54.6917L32.7346 54.6971C32.7902 54.7022 32.8401 54.7064 32.8902 54.71L32.9453 54.7139C33.3651 54.7417 33.6927 54.7232 33.9901 54.6417C34.4739 54.5084 34.9603 54.2332 35.4869 53.8263C36.0251 53.4103 36.4144 53.0185 36.6486 52.612C36.653 52.6044 36.6536 52.5983 36.6506 52.5909L36.6483 52.5863L36.5593 52.4273L36.7377 52.3761C36.8802 52.3352 37.0011 52.283 37.1028 52.2162C37.4156 52.0113 37.5203 51.6012 37.2935 51.3868L37.2834 51.3776L37.2697 51.3655L37.0781 51.0859L37.3552 51.0461C37.4479 51.0322 37.5293 51.0165 37.6054 50.9972C38.1119 50.869 38.3721 50.4759 38.1479 50.0975L38.1404 50.0852L38.0498 49.9395L38.2115 49.8744C38.2462 49.8605 38.282 49.8473 38.3217 49.8338L38.3459 49.8256L38.3702 49.8176L38.4611 49.7884C38.6533 49.7267 38.8414 49.6797 39.0289 49.6476C39.1771 49.6228 39.3255 49.6068 39.474 49.5996L39.5296 49.5973L39.5917 49.5952L39.5921 49.5934L39.6284 49.594L39.7554 49.5897L39.7529 49.596C39.9414 49.6006 40.1307 49.6184 40.3202 49.6495L40.3649 49.657C40.4307 49.6682 40.4932 49.6798 40.56 49.693L40.8491 49.7527C40.9017 49.7633 40.9476 49.772 40.9931 49.78L41.0371 49.7874L41.5027 49.8641L41.0771 50.0633L41.0662 50.0686L41.0552 50.0742L41.0083 50.0994C40.7191 50.2585 40.548 50.4399 40.5078 50.6638C40.4451 51.013 40.6492 51.1738 41.1302 51.2281L41.1704 51.2323L41.2128 51.2361L41.2406 51.2383L42.4452 51.3177L41.3047 51.5308C41.0284 51.5824 40.7493 51.6521 40.4675 51.7391C40.4456 51.7458 40.422 51.7541 40.3963 51.764L40.3767 51.7718L40.2608 51.8185L40.1495 51.8968C39.9543 52.0378 39.8998 52.1776 39.9973 52.3165L40.004 52.3257L40.0644 52.4062L40.0095 52.4904C39.8519 52.732 39.8726 53.0398 40.0609 53.29C40.2181 53.4988 40.4725 53.6316 40.8194 53.7077L40.8463 53.7135L40.9225 53.7293L41.0337 53.7464L41.1143 53.7571L41.1762 53.7642L41.2179 53.7684L41.2821 53.7742L41.4572 53.7886C41.7059 53.8092 41.8337 53.8259 41.9869 53.8632C42.1928 53.9131 42.374 53.9945 42.6152 54.1332L42.6433 54.1495L42.7027 54.1844L42.8179 54.2533L42.9294 54.3208L42.967 54.3433L43.0134 54.3706C43.3567 54.5701 43.5829 54.645 43.8211 54.61C43.9723 54.5878 44.0993 54.534 44.2119 54.4483L44.2295 54.4345L44.4023 54.2962L44.3972 54.2681L44.4347 54.2178C44.5067 54.1214 44.8133 53.5594 44.8136 53.559C45.0114 53.2208 45.2022 52.9871 45.4432 52.8326L45.464 52.8195L45.5113 52.7913L45.5654 52.7802L45.5927 52.7843C45.672 52.7964 45.6955 52.8307 45.7179 52.8887C45.7236 52.9035 45.7282 52.9199 45.7327 52.9398L45.7369 52.9594L45.7411 52.9818L45.7477 53.0208L45.7547 53.0663L45.7625 53.1224L45.7709 53.1872C45.7775 53.2394 45.7848 53.3001 45.793 53.3715L45.8838 54.1859L45.9088 54.4022L45.9319 54.5951C45.9338 54.6108 45.9357 54.6263 45.9376 54.6418L45.9572 54.798L45.9786 54.9614C46.0337 55.3732 46.0882 55.7043 46.1447 55.9556L46.1551 56.0008L46.1621 56.0301L46.1802 56.1052C46.5042 57.4558 46.6684 58.571 46.6766 59.6882C46.684 60.8892 46.4149 61.9611 45.8313 62.8447C45.275 63.6877 44.463 64.2996 43.548 64.5107C43.0657 64.6216 42.5873 64.5974 42.2017 64.4106C42.1313 64.3765 42.0813 64.3416 41.9901 64.2673L41.9597 64.2425C41.8392 64.1432 41.7861 64.1086 41.7219 64.0941C41.714 64.0922 41.7064 64.0908 41.6989 64.0899L41.6879 64.0888L41.5516 64.0786L41.5492 63.9456C41.5441 63.662 41.405 63.5511 41.4181 63.9936C41.4181 63.9936 41.4432 64.6312 41.45 64.7116L41.4548 64.7644L41.4566 64.7831L41.3761 65.0567C37.8618 66.3632 17.4887 66.3859 14.3454 65.1079L14.2555 65.0687L13.6997 64.809C13.6997 64.809 14.8135 64.5564 14.0519 64.6501C13.235 64.7506 12.2839 64.2633 11.7684 63.4427L11.5804 63.1409L11.5229 63.0471L11.491 62.9944C11.4144 62.8669 11.3598 62.7692 11.3021 62.6569C11.069 62.2038 10.8754 61.7161 10.7163 61.1916C10.4201 60.2155 10.265 59.1581 10.2186 57.9622C10.1348 55.799 10.3641 53.5159 10.8705 51.1371C11.3617 48.8298 12.1059 46.587 13.088 44.4663C13.5789 43.4062 14.12 42.3923 14.7132 41.4257L14.7769 41.3223L14.8464 41.2107L14.9176 41.0968L14.9893 40.9834L15.0546 40.8809L15.1204 40.7786L15.1868 40.6765C15.7928 39.7494 16.3316 39.0653 16.9544 38.475C17.5078 37.9506 18.0909 37.4185 18.7035 36.8787L18.6904 36.6527L18.6898 36.6486C18.6769 36.5742 18.4462 35.9389 18.6793 35.4439L18.7058 35.3883C18.9167 34.9537 18.9474 35.0655 19.1492 34.9284L19.1574 34.9227C19.5999 34.6142 20.1638 34.4027 20.8324 34.2616C21.0039 34.2254 21.1653 34.2092 21.3926 34.2004L21.424 34.1992L21.4652 34.1979L21.6421 34.1926C21.9752 34.1822 22.225 34.0679 22.4176 33.8312L22.4319 33.8134L22.4463 33.7948L22.4598 33.7767C22.5068 33.7128 22.5518 33.6397 22.6243 33.5143L22.674 33.4285L22.6978 33.3879L22.7223 33.3471C22.8054 33.2098 22.8645 33.129 22.9479 33.0407C23.2 32.7739 23.591 32.6173 24.0033 32.5911C24.7344 32.5447 25.4541 32.7355 26.5132 33.1739ZM36.1078 46.9L36.0483 47.1854C36.0427 47.2123 36.0396 47.2387 36.0391 47.2645L36.0392 47.2837L36.0434 47.4138L35.9111 47.4329C35.8041 47.4484 35.698 47.4645 35.5929 47.4813L35.4882 47.4983L34.5006 47.6614L35.4035 47.2197L35.4219 47.211L35.4268 47.2086L35.4615 47.1924L35.5701 47.1433L35.8372 47.024L36.1078 46.9Z" fill="#78E185"/>
<path fill-rule="evenodd" clip-rule="evenodd" d="M35.3314 32.1855C35.3874 32.4187 35.3362 32.6818 35.3456 32.9212C35.3545 33.15 35.3822 33.3774 35.4231 33.6029C35.8527 33.3829 36.3604 33.3546 36.8499 33.4254C37.4832 33.5171 38.216 33.7198 38.7124 34.1317C38.8349 34.2334 38.9364 34.3539 39.0214 34.4867C39.1234 34.646 39.1886 34.8261 39.3503 34.9402C39.6005 35.1169 39.9106 35.1853 40.1512 35.381C40.3964 35.5806 40.5486 35.8789 40.5808 36.1868C40.598 36.3507 40.5702 36.5039 40.5383 36.6637C40.5096 36.8075 40.5237 36.8666 40.5626 37.005C40.5931 37.1137 40.5349 37.237 40.4399 37.297C40.6435 37.4331 40.8445 37.5734 41.0419 37.7194C42.1922 38.5693 43.1649 39.6287 43.8391 40.8753L43.8554 40.9062L43.8743 40.9434C44.0386 41.2721 44.4686 42.2329 44.522 42.4489C44.5602 42.5617 44.5972 42.675 44.6316 42.7889C44.7224 43.0909 44.7994 43.3966 44.8632 43.7048L44.8803 43.7889C44.9321 44.0478 45.0213 44.3544 45.0069 44.6303C45.1562 45.3836 45.2885 46.1401 45.4014 46.8997C45.4162 46.9993 45.3755 47.0801 45.3123 47.1338C45.4634 47.1574 45.6134 47.1864 45.7619 47.2157L45.8481 47.2334L45.8912 47.2427C46.2004 47.3105 46.5054 47.4094 46.7079 47.6621C46.9262 47.9355 46.9307 48.2869 46.7114 48.5622C46.5252 48.7962 46.2534 48.9073 45.9696 48.9774C45.9135 48.9911 45.8569 49.0037 45.8004 49.0149C45.7624 49.0227 45.7373 48.9721 45.7733 48.9526L45.8336 48.9202L45.9157 48.8763C46.1297 48.7615 46.3517 48.6319 46.4701 48.4248C46.6309 48.1436 46.5037 47.8834 46.2279 47.7406C45.997 47.621 45.7113 47.5903 45.4549 47.5494L45.349 47.5324C45.081 47.4907 44.8075 47.4637 44.5369 47.4935C44.3002 47.5198 44.0604 47.5983 43.8691 47.7391L43.8514 47.7527L43.8331 47.7676C43.6654 47.9091 43.4242 48.227 43.7405 48.3186C43.9823 48.3882 44.2769 48.3709 44.531 48.3844L44.5639 48.3863C44.7767 48.4004 44.999 48.4004 45.2142 48.4253C45.2913 48.434 45.3674 48.4462 45.442 48.4633C45.6557 48.5125 45.5822 48.7893 45.3939 48.8088C45.3478 48.8137 45.3008 48.8161 45.2537 48.8171C45.1306 48.9073 44.9604 48.9482 44.8148 49.0042C44.6756 49.0578 44.5359 49.111 44.3953 49.1631C44.5164 49.1685 44.6376 49.1782 44.7582 49.1928C44.7972 49.1972 44.7977 49.2484 44.7582 49.2523C44.4678 49.281 44.1775 49.3122 43.8881 49.3516C43.4402 49.4121 42.9951 49.493 42.5602 49.6163C42.2422 49.7068 41.9282 49.8145 41.6236 49.9402L41.5314 49.9788L41.4934 49.995C41.2169 50.1116 40.8593 50.2481 40.7005 50.5051C40.6174 50.6391 40.5809 50.8463 40.698 50.9745C40.8233 51.1125 41.0857 51.0968 41.2611 51.1035L41.2752 51.1041C41.6466 51.1216 42.0185 51.124 42.3904 51.1114C43.1698 51.0846 43.9498 51.0018 44.7152 50.856C44.8563 50.8292 44.9174 51.0354 44.7752 51.0675C43.8724 51.2717 42.9597 51.3838 42.0333 51.389L41.9319 51.3892C41.571 51.4563 41.2172 51.5565 40.8663 51.6695L40.7961 51.6923C40.5889 51.7605 40.235 51.8283 40.1128 52.0285C40.0317 52.1615 40.0602 52.2527 40.1404 52.3146C40.2815 52.4233 40.5818 52.4437 40.728 52.4491C41.3137 52.4705 41.8998 52.4744 42.486 52.4622C42.7789 52.4559 43.0717 52.4457 43.3646 52.4311C43.6509 52.4164 43.9567 52.375 44.2421 52.4018C44.3647 52.4135 44.4058 52.5889 44.2726 52.6216C43.9208 52.7084 43.5261 52.7008 43.1626 52.7119L43.1208 52.7132C42.7303 52.7268 42.3394 52.7327 41.9489 52.7317C41.6138 52.7305 41.2787 52.7239 40.944 52.7119L40.648 52.7004L40.5956 52.698C40.4378 52.6898 40.2767 52.6721 40.1369 52.6089C40.0077 52.8194 40.1043 53.1016 40.271 53.2682C40.4296 53.4272 40.6585 53.5051 40.8777 53.5539C40.8982 53.5582 40.9188 53.5626 40.9393 53.5665C41.4208 53.662 41.9114 53.6538 42.3619 53.8691C42.7408 54.0504 43.0878 54.3525 43.5122 54.4242C43.8916 54.4885 44.1675 54.3258 44.3697 54.0246C44.3808 54.008 44.3918 53.9915 44.4023 53.9749C44.5614 53.7253 44.6761 53.4505 44.8438 53.2059C44.9294 53.0812 45.026 52.9613 45.1442 52.8638C45.1972 52.8194 45.5686 52.6275 45.6267 52.57C45.8765 52.3204 45.6552 51.7956 45.7203 51.4827C45.7964 51.1187 46.1253 50.9906 46.3225 50.7083C46.6974 50.1714 45.6692 49.6684 45.9766 49.0812C45.9806 49.0739 45.9856 49.0686 45.9921 49.0651C46.0191 49.051 46.0622 49.0686 46.0597 49.1032C46.0256 49.5408 46.4542 49.8419 46.6088 50.221C46.785 50.6524 46.5037 50.9136 46.2164 51.2016C45.8479 51.5714 46.1072 51.9857 46.0252 52.4311C46.0145 52.4895 45.9972 52.5409 45.9749 52.587C46.0378 52.625 46.0864 52.6879 46.0971 52.7758C46.2234 53.8187 46.3592 54.8584 46.581 55.8868L46.6284 56.1053L46.6919 56.3968C46.85 57.1259 46.9975 57.8578 47.0256 58.6032C47.1136 59.2322 47.1486 59.8664 47.0964 60.4996C46.9382 62.427 45.8314 64.4435 43.8206 65.0351C43.3551 65.172 42.8615 65.2076 42.3839 65.1116C42.2203 65.079 41.991 65.0068 41.7852 64.8976C41.7975 65.0261 41.8072 65.1546 41.8112 65.2827C41.8791 65.3562 41.9097 65.4672 41.8711 65.5622C41.7071 65.5097 41.5581 65.4265 41.4238 65.3127L41.4016 65.2935C41.322 65.0057 41.2988 64.6907 41.2872 64.3875L41.2842 64.3012C41.2811 64.2174 41.2792 64.135 41.2761 64.0546C41.2592 63.5541 41.2712 63.0527 41.2976 62.5527L41.3172 62.1846C41.3619 61.3261 41.3983 60.4697 41.3738 59.6088C41.3458 58.6181 41.2587 57.6317 41.1495 56.6464C41.0929 56.1381 41.0289 55.6308 40.9633 55.1235C40.9107 54.7151 40.8226 54.2756 40.8211 53.8545C40.4842 53.7844 40.1534 53.6498 39.9461 53.3745C39.7263 53.0826 39.6938 52.7093 39.889 52.4101C39.7003 52.1587 39.855 51.9218 40.0883 51.762C39.7299 51.5665 39.5301 51.0334 39.4771 50.6626C39.441 50.4082 39.4295 50.0276 39.5411 49.7415C39.381 49.7469 39.2208 49.763 39.0606 49.7898C38.8753 49.8215 38.6937 49.8677 38.5144 49.9253L38.4237 49.9545C38.3779 49.9694 38.3263 49.987 38.2751 50.0076C38.5991 50.529 38.183 51.0018 37.6494 51.1367C37.5479 51.1625 37.4442 51.1806 37.3396 51.1952C37.1038 51.2269 36.863 51.2366 36.6292 51.2576C36.1818 51.2975 35.7317 51.3546 35.2827 51.3731C35.1841 51.3775 35.1205 51.3327 35.0905 51.2702C35.0895 51.2693 35.089 51.2688 35.089 51.2678C35.0785 51.2513 35.0714 51.2337 35.0689 51.2152C35.0705 51.2167 35.0725 51.2176 35.0739 51.2186C35.0524 51.1016 35.1245 50.9594 35.2827 50.9423C35.931 50.8711 36.5882 50.8677 37.2384 50.8156L37.2801 50.8122C37.4842 50.7951 37.7246 50.7636 37.8862 50.6377C38.0364 50.5208 38.0499 50.3687 37.9898 50.2313C37.9888 50.2347 37.9879 50.2386 37.9873 50.242C37.9828 50.2693 37.9443 50.2683 37.9318 50.2493C37.8943 50.1938 37.8847 50.1392 37.8943 50.0865C37.8492 50.0359 37.7946 49.991 37.7356 49.9564C37.4737 49.8015 37.1294 49.7591 36.8315 49.7132C36.5056 49.6631 36.1773 49.6401 35.8484 49.6251C35.2011 49.5953 34.5518 49.6465 33.9151 49.7595C33.8886 49.764 33.8776 49.7279 33.9036 49.7196C34.1519 49.6397 34.4057 49.5725 34.6625 49.5193C34.6565 49.5183 34.6505 49.5174 34.6445 49.5159C34.622 49.5105 34.6059 49.4838 34.6135 49.4623C34.6144 49.4589 34.616 49.4555 34.6175 49.4526C34.5083 49.4038 34.4628 49.2401 34.5949 49.1738C35.0069 48.9667 35.4904 48.8731 35.9425 48.7878C36.3765 48.7064 36.815 48.6494 37.254 48.5988C37.9964 48.514 38.8058 48.5159 39.5201 48.2878L39.5495 48.2782C39.8403 48.1806 40.1876 47.9827 40.2079 47.6485C40.2379 47.1431 39.4665 47.2747 39.1452 47.2869C38.2657 47.3196 37.3872 47.379 36.5117 47.4706C36.3329 47.4892 36.1542 47.5081 35.9755 47.5277C35.7017 47.5573 35.4274 47.5886 35.1541 47.6217C35.0014 47.6402 34.8452 47.6646 34.688 47.688C34.639 47.6997 34.5909 47.708 34.5429 47.7124C34.5393 47.7128 34.5364 47.7119 34.5339 47.7104C34.3051 47.7416 34.0753 47.7654 33.8521 47.7586C33.8265 47.7582 33.8105 47.7191 33.8376 47.7074C34.1259 47.5886 34.4468 47.5184 34.7686 47.4633C34.9679 47.3186 35.2086 47.2026 35.4064 47.0905C35.6777 46.9365 35.9885 46.7099 36.2964 46.6178C36.435 46.5116 36.5922 46.4263 36.7369 46.3683C36.6954 46.3055 36.6803 46.2182 36.6878 46.1446C36.7154 45.881 36.9321 45.7338 37.1824 45.6821C37.26 45.6666 37.3496 45.6549 37.4452 45.6505C37.4472 45.6013 37.4697 45.553 37.5198 45.517L37.5346 45.5061L37.545 45.4979C37.7131 45.3651 38.0466 44.9912 37.6449 44.9639C37.4317 44.9492 37.2515 45.1013 37.0818 45.2041C36.7294 45.4181 36.3885 45.4287 35.986 45.3756L35.8051 45.3503L35.775 45.3464C35.4841 45.3092 35.1889 45.3041 35.0264 45.5929C34.8522 45.902 34.7912 46.1836 34.4397 46.3537C34.1039 46.516 33.7309 46.5481 33.4226 46.7713C33.0921 47.0101 32.8439 47.3454 32.5736 47.6426C31.9774 48.2976 31.2951 48.8761 30.5923 49.4199L30.4673 49.5164C29.82 50.0143 29.1519 50.5046 28.4273 50.8882C28.4223 50.8906 28.4172 50.8916 28.4128 50.8916C28.3933 50.8897 28.3787 50.8653 28.3963 50.8487C29.2427 50.0481 30.2329 49.399 31.1023 48.6197C31.4878 48.2742 31.8547 47.9106 32.2076 47.5335C32.516 47.2026 32.7893 46.8308 33.1488 46.5491C33.3234 46.4121 33.5122 46.3074 33.7234 46.2343C33.9207 46.1655 34.1419 46.1314 34.3236 46.0262C34.6795 45.8206 34.645 45.3333 35.0009 45.112C35.3061 44.9222 35.6778 44.9915 36.0162 45.0366L36.0566 45.0418C36.2759 45.0701 36.5026 45.094 36.7119 45.0097C36.9191 44.9263 37.0858 44.7704 37.2945 44.6876C37.5854 44.5711 37.9978 44.5989 38.147 44.9103C38.2897 45.2075 38.095 45.4765 37.8677 45.6739C38.1775 45.7285 38.4494 45.8742 38.4724 46.1714C38.6997 46.1641 38.9264 46.1563 39.1537 46.1485C39.9451 46.1217 40.7405 46.07 41.5325 46.0837C41.5144 46.0052 41.5064 45.9243 41.5054 45.842C41.5049 45.7962 41.5069 45.7504 41.5104 45.7036C41.5164 45.6237 41.5705 45.5754 41.6506 45.5671L41.8295 45.5485L41.8893 45.5428C42.2244 45.5119 42.5992 45.5054 42.8545 45.7211C42.9917 45.8376 43.1023 46.1057 43.0352 46.2845C43.1913 46.3366 43.3401 46.4034 43.4757 46.4877C43.7445 46.4 44.0269 46.4097 44.2971 46.5013L44.3292 46.5125C44.5214 46.5812 44.7937 46.7112 44.8981 46.8968C44.6447 45.2244 44.3031 43.5663 43.8738 41.9282C43.5997 41.274 43.2534 40.6487 42.8335 40.0717C41.7757 38.6175 40.2519 37.6175 38.8834 36.4679C38.7626 36.5973 38.6326 36.7204 38.5109 36.8389L38.4594 36.8894C38.2116 37.1337 37.9531 37.3674 37.689 37.5948C37.1369 38.0699 36.5558 38.5084 35.9788 38.954C34.8157 39.8523 33.7641 40.8061 32.8892 41.9788C32.8735 42 32.8299 41.9877 32.8421 41.9595C33.4421 40.5708 34.6862 39.515 35.8163 38.5354C36.4106 38.0202 37.0188 37.5175 37.5902 36.9781C37.8566 36.7266 38.1147 36.4664 38.3581 36.1936L38.4187 36.1252C38.5778 35.9438 38.9506 35.39 39.1969 35.7896C39.2485 35.8732 39.2463 35.9801 39.1969 36.0638C39.1269 36.1827 39.0381 36.2961 38.9409 36.405C39.2863 36.5879 39.6246 36.781 39.9555 36.9854C39.9365 36.8869 39.9412 36.7781 39.9589 36.6691L39.9647 36.6346L39.9888 36.4995C40.0234 36.3003 40.0411 36.1152 39.9113 35.921C39.7491 35.678 39.443 35.6022 39.1993 35.4618C38.9184 35.3 38.7718 35.0836 38.6214 34.8088C38.3334 34.2828 37.6828 34.0719 37.1236 33.9027L37.0533 33.8815C36.5366 33.7256 35.9776 33.6422 35.461 33.792C35.5095 34.0115 35.5729 34.228 35.6522 34.4389C35.7365 34.6633 35.9292 34.9129 35.9095 35.1553C35.8958 35.3231 35.6891 35.5025 35.5176 35.3742C35.2746 35.1928 35.226 34.8972 35.1609 34.6156C35.0979 34.3433 35.0577 34.0644 35.0406 33.7858C35.0241 33.5173 35.037 33.2489 35.071 32.9823L35.0971 32.7864L35.1034 32.741C35.1318 32.543 35.174 32.3352 35.2884 32.18C35.2994 32.1651 35.3264 32.1648 35.3314 32.1855ZM28.2818 31.0723C28.2854 31.0881 28.288 31.1038 28.2903 31.1194C28.307 31.1862 28.3133 31.2503 28.3112 31.3148C28.3122 31.3381 28.3105 31.3614 28.306 31.3844C28.297 31.4603 28.2783 31.5382 28.2529 31.6233C28.1989 31.8044 28.137 31.9834 28.0679 32.1596C27.9312 32.5082 27.7699 32.8408 27.5704 33.1596C27.2102 33.7355 26.7522 34.2135 26.2123 34.6267C26.3147 34.709 26.4149 34.7946 26.5153 34.8787C27.0004 35.2851 27.4724 35.71 27.9296 36.146C28.7415 36.9205 29.537 37.7094 30.3139 38.5172C30.6971 38.9155 31.0732 39.3191 31.4472 39.7255L31.4595 39.7391L31.4728 39.7545C31.6056 39.9109 31.8711 40.2838 32.0692 40.2239C32.1692 40.1936 32.2745 40.0483 32.3427 39.979L32.4683 39.8515C32.51 39.8089 32.5515 39.7661 32.5923 39.7226C33.3229 38.9433 34.0143 38.134 34.6634 37.2882C34.9802 36.8755 35.2864 36.455 35.5815 36.0272C35.7331 35.8073 35.882 35.5854 36.0279 35.3617C36.169 35.1453 36.283 34.9128 36.4909 34.7513C36.6435 34.6328 36.8549 34.7415 36.8165 34.9358C36.7559 35.2417 36.5383 35.5005 36.367 35.7591C36.195 36.019 36.0189 36.2764 35.8388 36.531C35.4923 37.0212 35.1307 37.5011 34.7562 37.9714C34.4337 38.3764 34.0973 38.771 33.7517 39.1576L33.6572 39.2628C33.2856 39.6753 32.9207 40.1132 32.51 40.4897C32.1422 40.8269 31.7406 40.7287 31.4055 40.401C30.9818 39.9867 30.5884 39.5387 30.1807 39.1093C29.3659 38.2512 28.5427 37.3997 27.7109 36.5572L27.4375 36.2799C27.1187 35.956 26.8012 35.63 26.4919 35.298L26.452 35.2547C26.0994 34.8686 25.7408 34.3848 25.2395 34.1884C25.2033 34.1743 25.2166 34.1242 25.2557 34.1312C25.5766 34.1889 25.8445 34.3463 26.0938 34.5344C26.3179 34.1734 26.5178 33.7929 26.6921 33.4038L26.5803 33.3565C25.7802 33.0199 24.8784 32.6806 24.0193 32.7351C23.6731 32.757 23.3038 32.8847 23.0647 33.1377C22.8483 33.3669 22.7402 33.676 22.5416 33.9201C22.3141 34.1997 22.0173 34.3255 21.6531 34.3368L21.4761 34.3421C21.2724 34.3485 21.0771 34.3589 20.8705 34.4025C20.3107 34.5207 19.7206 34.7123 19.2512 35.0396C19.0809 35.1584 18.9051 35.3216 18.8227 35.5015C18.7411 35.6797 18.7176 35.8882 18.7096 36.0806C18.7058 36.1743 18.7347 36.2982 18.7105 36.3879C18.7133 36.3776 18.7145 36.383 18.7149 36.3938C18.7899 36.4514 18.841 36.5471 18.8466 36.6425C19.3145 36.4051 19.7989 36.197 20.2928 36.0095C20.8426 35.8006 21.4095 35.6333 21.9765 35.4748C22.5315 35.3198 23.1123 35.2557 23.678 35.1452C23.7501 35.1311 23.7751 35.2258 23.708 35.2509C23.1134 35.4732 22.5381 35.7368 21.9385 35.9459C21.3393 36.155 20.7445 36.3813 20.1626 36.6329C19.0379 37.1193 17.9515 37.7382 17.0654 38.5779C16.2 39.398 15.5325 40.3944 14.9117 41.3961C14.2865 42.4049 13.7285 43.4504 13.2311 44.5245C12.2473 46.6491 11.5095 48.883 11.0238 51.1649C10.5511 53.3854 10.287 55.6852 10.375 57.9548C10.4167 59.0327 10.552 60.1115 10.8666 61.1482C11.0168 61.6436 11.2049 62.1275 11.4426 62.5895C11.6933 63.0767 12.0309 63.5106 12.2598 64.006C12.2786 64.0467 12.2858 64.0859 12.2848 64.1222C13.2609 64.9455 14.7888 64.3907 15.8452 63.8992C18.276 62.7676 20.6618 61.5293 22.9294 60.1083C25.1675 58.7058 27.2885 57.1405 29.3594 55.5158C29.1992 55.355 29.058 55.1747 28.9339 55.0114C28.6776 54.6742 28.4849 54.2921 28.3522 53.8935C28.197 53.4266 28.1489 52.9271 28.193 52.4394L28.2055 52.3014C28.2477 51.8408 28.2965 51.3734 28.4003 50.9233C28.4012 50.9175 28.4058 50.915 28.4108 50.915C28.4157 50.915 28.4208 50.9179 28.4228 50.9233C28.7026 51.7951 28.7251 52.7322 29.0394 53.5928C29.1661 53.9388 29.3623 54.2731 29.5976 54.5602C29.6993 54.6844 29.8184 54.7921 29.94 54.8974C29.948 54.8437 29.959 54.7907 29.9755 54.7385L29.9886 54.6972C30.0049 54.6471 30.0251 54.5914 30.0531 54.5421C30.0136 54.5309 29.9751 54.5187 29.937 54.5051C29.907 54.4944 29.9004 54.4471 29.937 54.4393C30.0367 54.4169 30.1393 54.4057 30.2439 54.4008C30.2604 54.3984 30.2764 54.3979 30.2924 54.3989C30.4882 54.393 30.6874 54.4067 30.8761 54.4096C31.203 54.4145 31.5289 54.4203 31.8552 54.4344C32.48 54.4607 33.1852 54.5772 33.8 54.4359C34.3587 54.3073 34.9093 53.9446 35.3573 53.6035C35.7487 53.3053 36.0506 52.951 36.3754 52.5977C36.3521 52.6013 36.329 52.6047 36.3059 52.6078L36.0964 52.6357C35.832 52.6701 35.5181 52.6971 35.3083 52.5734C35.2281 52.5261 35.2512 52.4189 35.3328 52.3896C35.547 52.3131 35.8128 52.3765 36.0411 52.3658C36.2203 52.3574 36.4015 52.339 36.5782 52.3029C36.6363 52.2912 36.6938 52.2776 36.7509 52.2615C37.1694 52.144 37.661 51.7308 37.3286 51.2795C37.3161 51.2625 37.33 51.2469 37.3471 51.2439C37.3546 51.2425 37.3626 51.2439 37.3691 51.2493C37.7475 51.5543 37.5508 52.1011 37.1929 52.3356C37.0698 52.4164 36.9306 52.473 36.7865 52.5144C36.814 52.5636 36.819 52.624 36.7859 52.6815C36.5056 53.1679 36.0311 53.5952 35.5865 53.9388C35.1301 54.2916 34.6034 54.6244 34.0373 54.7804C33.3835 54.9597 32.6652 54.8248 32.0019 54.7678C31.6425 54.737 31.2841 54.7005 30.9252 54.66C30.829 54.6493 30.7295 54.6411 30.6283 54.6318C30.7234 54.7536 30.799 54.894 30.8486 54.9783C31.0098 55.2521 30.8611 55.6128 30.5487 55.6966C30.5162 55.7054 30.4826 55.7102 30.4496 55.7112C30.3655 55.8754 30.1653 55.9963 29.98 55.9344C29.8995 55.9076 29.8219 55.8711 29.7473 55.8272C28.5824 56.8233 27.356 57.7579 26.0946 58.6342C23.7554 60.2589 21.3035 61.7428 18.7611 63.0473C18.1884 63.3412 17.6114 63.6271 17.0295 63.902L16.5286 64.137C15.9742 64.3968 15.4068 64.6551 14.818 64.8163C14.7032 64.8477 14.5831 64.8731 14.4599 64.8925C14.4583 64.9033 14.4579 64.9135 14.4586 64.9234C14.3479 64.9377 14.2513 64.9399 14.1688 64.9299L14.1501 64.9274C13.4284 64.9765 12.6564 64.805 12.1921 64.2918C12.1147 64.3447 12.0019 64.3506 11.9024 64.2745C11.4016 63.892 11.1031 63.3097 10.8412 62.7537C10.5756 62.1897 10.3674 61.6019 10.2144 60.9998C9.90884 59.7972 9.78765 58.5567 9.78127 57.3196C9.75817 52.5527 10.9845 47.7439 13.1146 43.4643C13.6548 42.3789 14.2503 41.3138 14.9113 40.2935C15.5706 39.276 16.3361 38.3303 17.3165 37.5882C17.5984 37.3749 17.8917 37.1798 18.1942 37.0001C17.9912 36.9021 17.9106 36.653 17.8963 36.4316C17.8648 35.9401 17.925 35.3738 18.2206 34.959C18.6353 34.3771 19.3778 34.0184 20.0662 33.8439C20.4255 33.7529 20.7973 33.6998 21.1679 33.6819C21.3591 33.6726 21.5576 33.7032 21.7465 33.6831C21.913 33.6655 22.0161 33.5687 22.1119 33.4414C22.3573 33.1153 22.5171 32.7732 22.8692 32.5341C23.2304 32.2888 23.6985 32.195 24.1336 32.2204C24.6406 32.2501 25.103 32.4445 25.5495 32.668C25.9525 32.8696 26.3436 33.093 26.7248 33.3313C26.7947 33.1719 26.8605 33.0113 26.9217 32.8501C27.0405 32.5377 27.1438 32.2152 27.2275 31.8922C27.3125 31.5647 27.3001 31.1322 27.5567 30.8859C27.7798 30.6718 28.2094 30.7559 28.2818 31.0723ZM45.5758 52.9268L45.5739 52.9272C45.0549 53.2266 44.8068 53.9749 44.5625 54.3018C44.5824 54.4115 44.5965 54.5231 44.624 54.6269C44.6871 54.8652 44.7697 55.1016 44.8653 55.3287C45.0335 55.7297 45.2443 56.1118 45.439 56.5006C45.5957 56.8133 45.7492 57.1318 45.8686 57.461C45.8557 57.4736 45.8437 57.4886 45.8335 57.5071C45.704 57.7433 45.6026 57.6969 45.3636 57.6453L45.3634 57.6449C45.2267 57.2375 45.0295 56.855 44.8523 56.4641L44.8092 56.3686L44.7666 56.2731C44.6185 55.9386 44.4834 55.601 44.4047 55.2424C44.3547 55.0139 44.3342 54.7789 44.3312 54.5455C44.2016 54.6494 44.0458 54.7239 43.8496 54.7526C43.4298 54.8144 43.0495 54.5584 42.7074 54.353L42.6303 54.3071C42.4162 54.1802 42.2038 54.063 41.9569 54.0031C41.6766 53.9349 41.3867 53.9349 41.102 53.9003C41.0679 53.8959 41.0334 53.8915 40.9988 53.8862C41.1099 54.2444 41.1615 54.6333 41.2276 54.9919C41.3197 55.4949 41.3948 56.0022 41.4669 56.508C41.607 57.4885 41.7047 58.4767 41.7542 59.4655C41.8021 60.4229 41.778 61.3767 41.7424 62.3338L41.7247 62.8005C41.7104 63.1805 41.6987 63.561 41.7056 63.9411C41.7246 63.9425 41.7437 63.9455 41.7627 63.9498C41.96 63.9947 42.0946 64.1905 42.2748 64.2778C42.6552 64.462 43.1148 64.4596 43.5198 64.3665C44.4408 64.154 45.2067 63.5283 45.7113 62.7637C46.317 61.8466 46.5393 60.7671 46.5322 59.6872C46.5239 58.4719 46.3217 57.3098 46.0402 56.1365L46.0222 56.0616C45.7853 55.0841 45.6369 52.9361 45.5758 52.9268ZM19.7838 50.4746C19.7891 50.8015 19.6525 51.1512 19.5775 51.4688C19.4967 51.811 19.4161 52.1533 19.3344 52.4954L19.2609 52.8019C19.1998 53.0573 19.1395 53.3129 19.0854 53.5699C19.0409 53.7811 19.0223 54.0595 18.9495 54.2924C19.8158 53.9513 20.6835 53.6136 21.5498 53.2736C22.617 52.8546 23.6893 52.4471 24.759 52.0349C25.8247 51.6245 26.8845 51.1577 27.9718 50.8068C28.2306 50.723 28.4058 51.125 28.1579 51.2366C27.0537 51.7352 25.8853 52.1255 24.754 52.5622L23.1175 53.1946C21.6173 53.7741 20.1161 54.3508 18.6074 54.9076C17.5797 55.2868 16.556 55.6771 15.5218 56.0372C15.0287 56.2088 14.5312 56.3711 14.0406 56.5489C13.6296 56.698 13.1851 56.9193 13.0329 57.3491C13.0249 57.3715 12.9934 57.3623 12.9969 57.3393C13.0585 56.9232 13.3759 56.6629 13.7337 56.4661C14.2087 56.2041 14.7304 56.0135 15.2318 55.8034L15.3001 55.7746C16.3239 55.3399 17.356 54.9228 18.3911 54.5127C18.3809 54.4883 18.3748 54.4622 18.3744 54.4349L18.3714 54.4357C18.3526 54.2494 18.4403 54.0833 18.5035 53.91L18.6845 53.4127C18.8052 53.0816 18.9134 52.7463 19.0249 52.4122C19.1415 52.063 19.2591 51.7142 19.3766 51.3652C19.4761 51.0697 19.543 50.7174 19.7133 50.4532C19.7338 50.4214 19.7904 50.4393 19.7838 50.4746ZM39.7214 49.7396L39.7085 49.8031C39.6934 49.8773 39.6793 49.9521 39.6758 50.0271C39.6658 50.2235 39.6888 50.4199 39.7424 50.6095C39.795 50.797 39.8685 50.9784 39.9732 51.1445C40.0723 51.3009 40.2159 51.4238 40.3075 51.5841C40.317 51.6011 40.323 51.6182 40.3255 51.6348C40.3606 51.6207 40.3951 51.608 40.4287 51.5977C40.708 51.5115 40.9933 51.4393 41.2826 51.3853L41.2367 51.3823L41.2071 51.38C40.7237 51.3401 40.2676 51.1862 40.3661 50.6367C40.4219 50.3261 40.6723 50.1178 40.9407 49.9702L40.9743 49.9521C40.9888 49.9442 41.0039 49.9364 41.0183 49.9297C40.7755 49.8897 40.5994 49.8405 40.3015 49.7917C40.1083 49.7601 39.9145 49.7425 39.7214 49.7396ZM17.6363 42.9716C18.1116 43.9066 18.4692 44.9007 18.739 45.9093C18.8693 46.3964 18.9798 46.8882 19.0687 47.3841L19.0979 47.5496L19.1145 47.6395C19.1975 48.0814 19.303 48.5601 19.1811 48.9913C19.1413 49.1322 18.901 49.188 18.8337 49.0356C18.6308 48.5756 18.6593 48.0468 18.6005 47.5545C18.5387 47.0379 18.4543 46.5238 18.3492 46.0139C18.1473 45.0342 17.8639 44.0774 17.5479 43.1278L17.5127 43.0223C17.4859 42.952 17.6027 42.9056 17.6363 42.9716ZM35.9074 47.1543C35.7657 47.2192 35.6241 47.2786 35.4989 47.338C35.4895 47.343 35.4795 47.3473 35.4694 47.3522C35.6111 47.3288 35.7532 47.3069 35.8954 47.2864C35.8939 47.2416 35.8984 47.1973 35.9074 47.1543ZM41.4505 46.6861C41.4292 46.6928 41.4104 46.7037 41.3941 46.7186L41.3861 46.7264C41.3666 46.744 41.3528 46.765 41.3447 46.7891C41.3322 46.8124 41.3264 46.8374 41.3274 46.8642L41.3346 46.916C41.3441 46.9491 41.3613 46.9777 41.3861 47.002L41.4266 47.0325C41.4539 47.0479 41.4831 47.0566 41.5142 47.0587L41.5277 47.0591L41.5682 47.0592C41.5914 47.0584 41.6132 47.0528 41.6336 47.0423C41.6549 47.0356 41.6737 47.0248 41.6901 47.0098L41.6981 47.002C41.7176 46.9843 41.7314 46.9634 41.7395 46.9393C41.7502 46.9194 41.756 46.8981 41.7567 46.8756L41.7567 46.8642L41.7496 46.8124C41.7412 46.7835 41.7271 46.7579 41.707 46.7357L41.6981 46.7264L41.6576 46.6959C41.6302 46.6805 41.601 46.6717 41.5699 46.6697L41.5565 46.6693L41.5277 46.6693C41.5001 46.6683 41.4743 46.6739 41.4505 46.6861ZM40.1481 46.6201C40.0417 46.6391 39.9814 46.7647 40.0082 46.8598C40.038 46.9652 40.1409 47.0121 40.2442 46.9977L40.2545 46.996C40.3756 46.9744 40.4942 46.9827 40.6094 47.0241C40.7109 47.0606 40.8289 46.9833 40.8557 46.888C40.8865 46.7791 40.8177 46.6847 40.7159 46.6482C40.5332 46.5825 40.3372 46.5862 40.1481 46.6201ZM19.0581 39.6975C19.3003 40.0431 19.4515 40.5024 19.6007 40.8973L19.6156 40.9366C19.7742 41.3516 19.9272 41.7698 20.0699 42.1903C20.3546 43.0298 20.7258 43.9081 20.7943 44.7949C20.807 44.9585 20.5498 45.0241 20.4752 44.8791C20.2609 44.4621 20.1456 44.0274 20.0188 43.5803C19.8979 43.154 19.7719 42.7291 19.6459 42.3041C19.5199 41.8794 19.398 41.4535 19.2739 41.0282C19.1532 40.6145 18.9851 40.1546 18.9575 39.724C18.9539 39.6681 19.0303 39.6577 19.0581 39.6975ZM24.5249 36.9156C24.8482 37.1341 25.113 37.4536 25.3866 37.7269C25.6642 38.0042 25.9381 38.2841 26.2094 38.5672C26.6628 39.0404 27.1079 39.5213 27.5677 39.9888C28.484 40.9203 29.5205 41.7775 30.7851 42.2153C31.0911 42.3212 30.957 42.7993 30.6503 42.6911C29.3569 42.2346 28.2854 41.3905 27.3402 40.4356C26.8507 39.9411 26.4016 39.4126 25.9636 38.8748C25.7587 38.6231 25.5552 38.3706 25.3547 38.1157L25.2348 37.9624C24.9826 37.6385 24.6741 37.3157 24.4896 36.95C24.4792 36.9295 24.502 36.9002 24.5249 36.9156Z" fill="black"/>
<path fill-rule="evenodd" clip-rule="evenodd" d="M40.4513 22.8017C40.4315 21.7101 40.4095 20.5965 40.2431 19.5155C40.0805 18.4586 39.6331 17.5032 38.8642 16.7357C37.2311 15.1055 34.8639 14.7073 32.6604 14.3424L28.893 13.7185C27.7437 13.5282 26.5175 13.224 25.3562 13.4939C24.784 13.6269 24.2981 13.9358 23.854 14.3014C23.4259 14.6537 22.9656 15.0321 22.6755 15.5061C22.385 15.9808 22.285 16.5357 22.1906 17.0726C22.084 17.6779 22.0012 18.2879 21.9424 18.8994C21.8246 20.1245 21.8085 21.3588 21.894 22.5865C21.9354 23.182 22.0013 23.7757 22.0854 24.3668C22.1271 24.6599 22.1743 24.9523 22.2275 25.2437C22.2432 25.3296 22.2551 25.4247 22.2712 25.5208C22.1524 25.8506 22.0849 26.192 22.0903 26.532C22.1063 27.5336 22.9729 28.1641 23.8464 28.5027C24.3529 28.6989 24.8825 28.8323 25.3802 29.0516C25.9037 29.2823 26.2601 29.6562 26.618 30.0827C27.3007 30.8963 28.0711 31.6274 28.9509 32.2375C30.816 33.5309 33.1783 34.1426 35.4414 33.6783C35.9844 33.5669 36.5321 33.3939 37.0202 33.1332C37.5355 32.858 37.923 32.4593 38.2484 31.9878C38.8526 31.1125 39.2859 30.1269 39.6136 29.1239C39.948 28.1009 40.1853 27.0759 40.3147 26.0091C40.4437 24.9458 40.4709 23.8717 40.4513 22.8017V22.8017Z" fill="#FFD1B0"/>
<path fill-rule="evenodd" clip-rule="evenodd" d="M28.4293 9.91563C29.9883 9.70642 32.1401 10.3864 32.9165 11.7574C36.6233 10.9049 41.2985 10.877 44.3536 13.715C47.5416 17.0815 43.5374 21.5202 40.8822 22.521C41.0756 23.4375 40.7742 29.309 38.6414 31.928C36.9489 34.147 33.0073 35.1711 31.1833 32.5206L31.1691 32.4988C30.9737 32.1927 31.142 32.2025 31.3426 32.4302C33.1286 33.9624 35.5569 33.9886 37.4282 32.3716C40.9352 29.416 40.5736 22.169 38.9048 17.9766C34.1529 17.4674 29.065 18.8725 25.7829 22.3622L26.0048 23.6657C26.0427 23.8877 26.0856 24.1096 26.1184 24.3324C26.1394 24.4752 26.1417 24.6172 26.0403 24.7328C25.7055 25.1144 25.1412 24.541 24.6769 24.313C24.5398 24.2941 24.4025 24.2869 24.2678 24.2961C22.037 24.5765 22.4766 28.7981 24.9283 28.0581C25.1343 27.9329 25.3113 27.9711 25.3912 28.1528C25.9756 28.675 26.3609 29.6064 27.3319 30.5034C27.6744 30.8399 27.9862 31.1214 28.3715 31.3914C28.5979 31.6147 29.2808 31.8423 29.0643 32.2244C28.6549 33.0939 26.2407 30.3627 25.8138 29.6074C24.4764 30.1226 22.9944 29.9476 21.6084 29.8217C14.2969 29.4509 15.273 21.932 21.2661 17.185C22.3942 16.3748 23.6388 15.7138 24.9327 15.2052C25.1093 15.1358 25.0321 14.8528 24.853 14.9232C23.9969 15.2598 23.1623 15.6604 22.3668 16.1241L22.3656 15.8469C22.3644 15.38 22.3719 14.8939 22.4551 14.4673C22.4966 14.1717 22.5665 13.856 22.6741 13.6184C22.8071 12.8902 24.8909 10.3907 28.4293 9.91563ZM24.1702 25.2654C24.2831 25.1607 24.4939 25.2855 24.5944 25.2824C24.8514 25.3167 25.0955 25.4226 25.286 25.5533C25.4117 25.622 25.4998 25.6865 25.5734 25.7459L25.5754 25.7453C25.5749 25.7453 25.5742 25.7459 25.5736 25.746L25.5805 25.7506C25.6877 25.8249 26.0802 26.2434 25.8322 26.1309C25.8138 26.1074 25.7948 26.0849 25.7757 26.0629C25.7737 26.0659 25.7708 26.0688 25.7674 26.0717L25.7814 26.0919C25.9921 26.4012 25.6283 26.0753 25.5723 25.9888C25.5696 25.9909 25.5666 25.9923 25.5637 25.9938L25.6366 26.0804C25.6468 26.0926 25.6548 26.1025 25.6614 26.1108L25.6768 26.1252C25.9205 26.3589 25.9281 26.5692 25.645 26.2237C25.6562 26.24 25.6651 26.2572 25.6663 26.2725L25.6831 26.2934C25.9054 26.5728 25.7246 26.4736 25.6141 26.3543L25.6049 26.344L25.6068 26.3468C25.7095 26.5012 25.5057 26.3929 25.4697 26.3102L25.4681 26.3065C25.4289 26.2753 25.4047 26.2402 25.3964 26.2313L25.3949 26.2299C25.2038 26.0388 24.9267 25.8772 24.6914 25.8037C24.6573 25.7974 24.6228 25.7923 24.5879 25.7887C24.4464 25.7579 24.3033 25.7368 24.1588 25.7254C24.1411 25.7234 24.1232 25.7107 24.1098 25.6943C23.8912 25.6872 23.9587 25.5997 24.0494 25.5835L24.0509 25.5832L24.0329 25.5818C23.8927 25.5684 23.7968 25.5193 23.9387 25.4892L23.9567 25.4857C23.9545 25.4823 23.9525 25.4789 23.9506 25.4756C23.8291 25.4626 23.9084 25.3474 23.9759 25.3752C23.9475 25.2848 24.0772 25.3299 24.0933 25.3165C24.1057 25.3031 24.121 25.2913 24.1299 25.2907C24.1689 25.2638 24.15 25.2662 24.1702 25.2654ZM24.9135 23.8002L24.8851 23.8164C24.862 23.8295 24.8384 23.8383 24.8146 23.8434C24.8481 23.8573 24.8813 23.8724 24.9141 23.8885C24.9136 23.8688 24.9132 23.8492 24.9132 23.8296L24.9135 23.8002Z" fill="black"/>
<path fill-rule="evenodd" clip-rule="evenodd" d="M32.3964 28.3174C33.2349 27.7704 37.4788 27.8774 37.8704 28.2971C38.2621 28.7167 39.1674 29.9145 37.2283 30.5027C35.2893 31.0909 32.889 30.8848 32.2637 30.1647L32.2268 30.1217C31.6355 29.4214 31.5746 28.8535 32.3964 28.3174Z" fill="white"/>
<path fill-rule="evenodd" clip-rule="evenodd" d="M36.0521 25.1007C36.4301 25.3244 37.0061 25.8459 36.5994 26.4005C36.1208 26.8894 35.4316 26.3288 35.092 26.0753C34.7771 25.8788 34.4233 26.3841 34.7154 26.6136C37.1695 28.3823 38.1654 25.1592 36.2433 24.8377C36.0317 24.8023 35.9531 25.0315 36.0521 25.1007ZM32.6368 20.8348L32.7308 20.8188L32.779 20.8109C33.0605 20.7656 33.3942 20.7353 33.5887 20.9504C33.6977 21.071 33.7353 21.2953 33.5887 21.4108C33.3308 21.614 33.0456 21.5353 32.7366 21.5525C32.4819 21.5667 32.2371 21.6077 31.9918 21.676C31.4535 21.8258 31.015 22.0991 30.5553 22.3993C30.495 22.4387 30.4334 22.3636 30.4622 22.3087C30.7276 21.8027 31.2418 21.3871 31.7569 21.1337C32.0318 20.9985 32.3327 20.8863 32.6368 20.8348ZM35.1266 27.825C35.9491 27.8831 37.7317 27.5009 38.4718 28.0742C41.2614 31.4654 30.2021 32.3372 31.3965 28.5855C32.1572 27.3724 33.907 27.86 35.1266 27.825ZM34.9855 29.8722C34.7821 29.856 34.5352 30.0129 34.4755 30.1341C34.4158 30.2553 34.4389 30.5115 34.4407 30.5559C34.7963 30.5908 35.1551 30.5961 35.5118 30.5734C35.4191 30.275 35.4161 29.9173 34.9855 29.8722ZM36.6277 30.3727C36.5706 30.0024 36.2985 29.9147 36.0782 29.9703C35.8529 30.0271 35.7206 30.2796 35.735 30.5044C35.7359 30.5199 35.7267 30.533 35.7206 30.5455C36.0269 30.5103 36.3303 30.4523 36.6277 30.3727ZM34.1051 29.9392C33.9769 29.7493 33.6704 29.6576 33.4741 29.6911C33.1536 29.7568 33.1157 30.1532 33.1157 30.234C33.4112 30.3437 33.7249 30.4165 34.0248 30.4745C34.0851 30.4861 34.1454 30.4965 34.2059 30.5063L34.2098 30.4581C34.2171 30.355 34.2225 30.1131 34.1051 29.9392ZM37.7308 29.9079C37.4021 29.4129 36.6957 29.7673 36.7541 30.308C36.8169 30.2888 36.8793 30.2686 36.9415 30.2475C37.1997 30.1599 37.4829 30.0558 37.7308 29.9079ZM35.1435 28.2025C34.7014 28.1637 34.3387 28.1768 34.0504 28.2288L34.0417 28.3226C34.0098 28.6477 33.9686 28.9673 34.144 29.0981C34.2864 29.2043 34.7591 29.1942 35.076 29.1173C35.1543 29.0981 35.2561 28.4238 35.1435 28.2025ZM35.8272 28.1637C35.7563 28.4841 35.723 28.8731 35.8653 28.9887C36.0155 29.1107 36.4991 29.0942 36.6256 29.0129C36.7363 28.9418 36.7335 28.6146 36.6924 28.2472C36.4474 28.1911 36.0209 28.1637 35.8272 28.1637ZM33.8549 28.232L33.7101 28.2333L33.6282 28.2344C33.421 28.238 33.1974 28.2496 32.9861 28.2945C32.5663 29.1776 34.0994 29.3301 33.8626 28.2647L33.8549 28.232ZM36.8874 28.2533L36.8847 28.3034C36.8721 28.5514 36.8805 28.8781 37.0217 28.9663C37.2294 29.0961 37.6195 29.0711 37.8308 28.4708C37.7609 28.2917 37.0192 28.2664 36.8874 28.2533ZM32.8188 22.9873C32.9076 22.9873 32.9925 23.0167 33.0698 23.0709C33.1459 23.1243 33.2148 23.2023 33.2722 23.2995C33.3807 23.4835 33.4486 23.7376 33.4486 24.0185C33.4486 24.2994 33.3807 24.5535 33.2722 24.7375C33.2148 24.8347 33.1459 24.9126 33.0698 24.9661C32.9925 25.0203 32.9076 25.0497 32.8188 25.0497C32.7301 25.0497 32.6452 25.0203 32.5678 24.9661C32.4918 24.9126 32.4229 24.8347 32.3655 24.7375C32.2569 24.5535 32.189 24.2994 32.189 24.0185C32.189 23.7376 32.2569 23.4835 32.3655 23.2995C32.4229 23.2023 32.4918 23.1243 32.5678 23.0709C32.6452 23.0167 32.7301 22.9873 32.8188 22.9873ZM38.4373 22.9873C38.5261 22.9873 38.611 23.0167 38.6883 23.0709C38.7644 23.1243 38.8333 23.2023 38.8907 23.2995C38.9992 23.4835 39.0671 23.7376 39.0671 24.0185C39.0671 24.2994 38.9992 24.5535 38.8907 24.7375C38.8333 24.8347 38.7644 24.9126 38.6883 24.9661C38.611 25.0203 38.5261 25.0497 38.4373 25.0497C38.3486 25.0497 38.2637 25.0203 38.1864 24.9661C38.1103 24.9126 38.0414 24.8347 37.984 24.7375C37.8754 24.5535 37.8076 24.2994 37.8076 24.0185C37.8076 23.7376 37.8754 23.4835 37.984 23.2995C38.0414 23.2023 38.1103 23.1243 38.1864 23.0709C38.2637 23.0167 38.3486 22.9873 38.4373 22.9873ZM37.6729 20.6082L37.7448 20.6225L37.7925 20.6324C38.5684 20.7948 39.5521 21.1151 39.9153 21.8485C39.9294 21.9543 39.9145 21.977 39.9023 21.9918L39.8983 21.9968C39.8883 22.0094 39.8803 22.0269 39.8332 22.0413C39.8201 22.0382 39.8069 22.035 39.7936 22.0316C39.6236 21.9883 39.4892 21.9285 39.3591 21.8666L39.218 21.7989C39.0542 21.7208 38.8891 21.6455 38.714 21.5899C38.3405 21.4713 37.9563 21.3877 37.5661 21.3431C37.4816 21.3334 37.4001 21.3056 37.3359 21.258C37.2749 21.2128 37.2283 21.1502 37.2071 21.0671C37.1795 20.9594 37.1875 20.8779 37.2468 20.7808C37.2914 20.7078 37.3552 20.6573 37.4285 20.6283C37.5033 20.5987 37.5883 20.5917 37.6729 20.6082Z" fill="black"/>
</svg>
