<svg width="57" height="74" viewBox="0 0 57 74" fill="none" xmlns="http://www.w3.org/2000/svg">
<path fill-rule="evenodd" clip-rule="evenodd" d="M26.6681 32.2322L26.0682 33.6759L26.3987 38.2518L26.6447 38.2891C29.242 38.681 31.0069 38.879 31.9394 38.8831L31.9683 38.8831C32.9074 38.8831 34.0327 38.6789 35.3442 38.2705L35.4039 38.2518L35.5553 34.8255H35.1983L34.5524 33.3514L34.553 33.3509C34.5601 33.3627 34.5675 33.3742 34.5752 33.3853C34.8445 33.773 35.0006 33.4599 35.6332 33.597C36.3906 33.7612 36.7268 34.5064 37.3936 35.0633C37.7032 35.3219 38.353 35.4438 38.664 35.6216L38.9906 35.8084C40.0141 36.3961 41.1905 37.11 41.8082 38.04C42.5323 39.1303 43.0314 40.1649 43.4923 41.3778C44.4857 43.9919 45.1752 46.6595 45.6679 49.4029C46.1673 52.1833 46.4675 54.9983 46.6967 57.8111C46.8028 59.1145 46.8929 60.4191 46.9676 61.7246L46.986 62.051C47.0253 62.7613 46.9911 63.4563 46.3277 63.8937C45.8524 64.2071 45.2216 64.2548 44.6639 64.287L44.6336 64.2887C40.5105 64.5241 36.3874 64.7578 32.2642 64.992L26.0797 65.3439C25.0506 65.4027 24.0215 65.4609 22.9925 65.5188L20.4805 65.6601C19.2967 65.7257 18.1113 65.7824 16.9259 65.7757C15.4344 65.7672 13.9492 65.66 12.4715 65.4665L12.3412 65.4492C11.4115 65.3242 10.0634 65.0081 9.89645 63.9226C9.87248 63.7668 10.0134 63.6694 10.1317 63.6918C10.0928 63.5151 10.0686 63.3382 10.0455 63.1845C9.94641 62.5277 9.88419 61.8668 9.85345 61.2037C9.79177 59.8769 9.84375 58.5439 9.98 57.2229C10.2054 55.0374 10.5214 52.8557 10.8479 50.6817L10.9206 50.1987C11.2679 47.8953 11.6813 45.5958 12.3283 43.3521C12.926 41.2794 13.8584 39.1233 15.1413 37.8127C16.4242 36.5021 18.2534 35.3634 20.133 34.6659C20.2957 34.6055 23.5297 33.9162 23.7476 34.0166L23.7867 33.9867C24.4315 33.4912 25.3513 32.6207 26.2983 32.8949L26.3004 32.8914C26.3228 32.8514 26.4103 32.584 26.5311 32.2322L26.6681 32.2322Z" fill="#8FA7DF"/>
<path fill-rule="evenodd" clip-rule="evenodd" d="M27.352 30.3108C28.1353 29.344 28.961 29.0367 30.181 29.1087C31.0084 29.08 31.8336 29.289 32.5341 29.7509C33.176 30.0774 33.7453 30.5269 34.1516 31.1054C34.4991 31.6001 34.2351 32.8225 34.5524 33.3514C34.5493 33.409 34.5478 33.4614 34.5478 33.5088C34.5478 33.9665 34.8749 34.4772 35.5293 35.0411L35.5553 35.0633V38.3892C34.4552 38.7185 33.0931 38.8831 31.4691 38.8831C29.8694 38.8831 28.2054 38.6217 26.4773 38.0987L26.3987 38.0747L26.0682 34.4601L26.3987 33.4599L26.3987 32.6221L26.5264 32.2474C26.7525 31.5885 27.0987 30.6235 27.352 30.3108Z" fill="#FFCAA6"/>
<path fill-rule="evenodd" clip-rule="evenodd" d="M26.3987 38.0747C26.3987 38.0747 29.3035 38.8982 31.2865 38.8982C33.2694 38.8982 35.4039 38.0747 35.4039 38.0747L35.0577 65.1815L29.4843 65.2478L26.3987 38.0747Z" fill="#9FD8E5"/>
<path fill-rule="evenodd" clip-rule="evenodd" d="M16.8367 49.9104C16.8153 49.8713 16.8651 49.8361 16.8981 49.8643C17.6489 50.5057 18.042 51.5358 18.1244 52.4879C18.2117 53.4976 18.0879 54.5429 18.0406 55.5521C17.9879 56.6763 17.9406 57.8008 17.8763 58.9245C17.8111 60.0645 17.7408 61.2041 17.6805 62.3443L17.545 64.9093V64.9093C17.5305 65.1826 17.5618 65.5188 17.454 65.7739C17.287 66.1694 16.791 66.1082 16.6867 65.7776L16.6835 65.7667L16.674 65.7739C16.582 65.476 16.6508 65.1222 16.6664 64.8142L16.8084 62.0118V62.0118C16.9088 60.031 16.9983 58.0502 17.1061 56.0697L17.1427 55.4096C17.1931 54.5209 17.2318 53.6345 17.2628 52.7461L17.2728 52.4499C17.3023 51.5579 17.2789 50.7158 16.8367 49.9104ZM35.0369 33.4666C35.4552 33.4279 35.771 33.5629 36.1507 33.7052C36.3162 33.7671 36.4728 33.8386 36.6315 33.9127C36.8302 34.0055 36.958 34.1694 37.0803 34.3428L37.1457 34.4362C37.6552 35.1629 37.9979 36.0012 38.3846 36.7923C38.837 37.7178 39.2938 38.6412 39.7365 39.5711L39.955 40.0292C40.0642 40.2583 40.1731 40.4875 40.2803 40.7174L40.4657 41.1176C40.6519 41.5234 40.8188 41.9528 40.5534 42.3714C40.3067 42.7608 39.8692 43.0621 39.5228 43.3631C39.2338 43.6142 38.9448 43.8653 38.6556 44.1164C39.2533 44.699 39.6545 45.4326 39.8903 46.2193C40.2254 46.0834 40.6343 46.0573 40.9808 45.9985C41.4657 45.9162 41.5251 46.6309 41.0674 46.6222C40.7294 46.6158 40.3329 46.6494 39.9861 46.5801C40.0464 46.8386 40.0901 47.101 40.1179 47.3641C40.2636 48.7433 39.9453 50.1305 39.6132 51.4649L39.5859 51.5745C39.2253 53.0188 38.8833 54.4669 38.5774 55.9232C38.2709 57.3826 37.9951 58.8482 37.7503 60.3186C37.5011 61.8153 37.3248 63.3203 37.1353 64.8249C37.1066 65.0526 36.9594 65.2478 36.7009 65.2478C36.4856 65.2478 36.2395 65.0521 36.2665 64.8249C36.4621 63.1864 36.7394 61.5565 37.0149 59.9292C37.4894 57.1268 38.0866 54.3488 38.7737 51.589L38.8937 51.1084C39.2028 49.8619 39.4833 48.5776 39.3282 47.2919C39.2019 46.2449 38.7523 45.1287 37.8636 44.4784L37.8365 44.4588C37.6289 44.3106 37.549 44.0272 37.7535 43.832C37.8836 43.7078 38.0139 43.5838 38.1442 43.4598L38.9265 42.7162L39.0842 42.5661C39.2158 42.4411 39.3479 42.3168 39.484 42.1964C39.5664 42.1236 39.7897 41.9847 39.806 41.8649C39.8166 41.7867 39.7215 41.6493 39.683 41.5773L39.5064 41.2303V41.2303C39.4061 41.0325 39.309 40.8332 39.211 40.6342C39.0082 40.222 38.8023 39.8111 38.6039 39.3968L37.4114 36.9095V36.9095C37.075 36.2077 36.7754 35.4669 36.3356 34.8182L36.2489 34.6917C36.1765 34.5852 36.1125 34.4827 36.0668 34.3525C36.0228 34.2272 35.9676 34.0896 35.8863 33.9827C35.6958 33.7318 35.3317 33.5895 35.0271 33.5369C34.9831 33.5293 34.9991 33.4701 35.0369 33.4666ZM25.8658 32.8133C25.8923 32.8133 25.8963 32.8501 25.8719 32.8572C25.5043 32.9648 25.1531 33.1384 24.8666 33.389C24.7295 33.5089 24.5915 33.645 24.5069 33.8064C24.4745 33.8682 24.4566 33.9334 24.4434 34.0011L24.4392 34.0237C24.4174 34.1459 24.3861 34.214 24.3223 34.3118L24.3114 34.3284C23.9473 34.8759 23.6921 35.4839 23.4587 36.0927L22.9506 37.4202V37.4202L22.4428 38.7478C22.2792 39.1755 22.1155 39.6033 21.9518 40.0311C21.8614 40.2673 21.7685 40.5024 21.6755 40.7376C21.6353 40.8395 21.5921 40.9407 21.5553 41.0438C21.5503 41.0579 21.5342 41.1428 21.5221 41.1634L21.5262 41.1705V41.1705C21.6287 41.3382 21.9018 41.4783 22.0566 41.6002L22.5898 42.0198V42.0198C22.9699 42.319 23.3598 42.6098 23.7285 42.9224C23.9601 43.1187 23.816 43.4702 23.5577 43.5521C23.1249 43.6894 22.7008 43.8537 22.2745 44.009C22.1023 44.0717 21.9229 44.1263 21.7527 44.1955L21.6491 44.2391C21.6086 44.2568 21.6281 44.2566 21.6297 44.3293C21.6313 44.4056 21.6535 44.4851 21.6663 44.56C21.8099 45.4053 21.9621 46.2492 22.1228 47.0916C22.6911 50.0705 23.3701 53.0276 24.1446 55.9621C24.5357 57.444 24.9552 58.9185 25.3549 60.3982C25.7537 61.874 26.2784 63.3286 26.7793 64.7739C26.9207 65.1815 26.2568 65.357 26.1189 64.9511C25.5416 63.2512 25.0134 61.5365 24.4679 59.827C23.4988 56.7894 22.7351 53.6859 22.0597 50.5749C21.7249 49.033 21.4187 47.4852 21.1414 45.9325C21.0889 45.6386 21.0374 45.3444 20.987 45.0501L20.9135 44.6173C20.8631 44.3087 20.8344 43.9873 21.0808 43.7431C21.3213 43.5048 21.7343 43.4204 22.0508 43.3086L22.0738 43.3003C22.2752 43.2272 22.4781 43.1567 22.6802 43.084C22.3825 42.8558 22.0885 42.6226 21.7915 42.3946C21.5519 42.2107 21.3086 42.0304 21.0725 41.8423C20.8778 41.687 20.719 41.4878 20.6987 41.2354C20.678 40.9774 20.7916 40.738 20.8832 40.5014L20.892 40.4786C20.9819 40.2423 21.072 40.0063 21.1645 39.771L21.7367 38.3143V38.3143C22.1003 37.3886 22.4485 36.4555 22.831 35.5371C22.9823 35.1736 23.1472 34.8159 23.342 34.4723C23.4359 34.3066 23.5367 34.1445 23.6462 33.9881C23.7688 33.8127 23.8802 33.7273 24.0703 33.6305C24.3742 33.4758 24.6127 33.2165 24.9179 33.057C25.2175 32.9004 25.5257 32.8169 25.8658 32.8133ZM26.8525 31.1619C26.8641 31.1424 26.8949 31.1511 26.8953 31.1732C26.9032 31.6332 26.7909 32.1033 26.7219 32.5582C26.6525 33.0147 26.6302 33.4965 26.5299 33.9481C26.5278 33.9692 26.5236 33.9899 26.5177 34.0103L26.5129 34.0257V34.0257C26.4705 34.1523 26.3604 34.2595 26.2252 34.293C26.2677 34.5223 26.3078 34.752 26.3414 34.9829C26.3993 35.3798 26.4521 35.7773 26.504 36.175L26.5662 36.6522C26.6249 37.1019 26.6819 37.5518 26.7384 38.0017C26.8819 38.0602 27.0283 38.1084 27.1783 38.1501C27.5237 38.2464 27.8775 38.2855 28.234 38.3195C28.9599 38.3889 29.6913 38.421 30.4198 38.4603L30.5759 38.4689C31.3948 38.5146 32.2183 38.5227 33.0352 38.4409C33.4403 38.4003 33.8422 38.3322 34.2372 38.2358C34.4379 38.1868 34.633 38.1135 34.8334 38.0656C34.8998 38.0497 34.9592 38.0131 35.0258 37.9739C35.0553 37.9376 35.0968 37.91 35.1508 37.8994L35.1655 37.8969V37.8969L35.1799 37.8948L35.1849 37.8926L35.1846 37.8942C35.2255 37.8888 35.2645 37.8888 35.3012 37.8937C35.3158 37.5429 35.3316 37.192 35.3515 36.8413C35.4048 35.8993 35.5519 34.9166 35.3555 33.9828C35.349 33.9514 35.3928 33.9404 35.4043 33.9698C35.7897 34.9583 35.7464 36.0393 35.7658 37.0797C35.7848 38.0972 35.7733 39.1154 35.7681 40.1331C35.843 40.1641 35.9097 40.2061 35.9627 40.2651C36.0683 40.383 36.0987 40.588 35.9627 40.7018C35.9023 40.7522 35.8356 40.7873 35.7648 40.8116C35.761 41.6957 35.7546 42.5799 35.7455 43.464C35.9182 43.5939 35.9344 43.9023 35.739 44.0305C35.7065 46.8937 35.653 49.7571 35.6087 52.6199L35.5158 58.6262V58.6262C35.5035 59.4265 35.483 60.2267 35.4756 61.0268L35.4815 61.0291V61.0291L35.502 61.0383C35.5366 61.0542 35.5881 61.0797 35.5988 61.1059C35.6016 61.1128 35.6023 61.1175 35.602 61.121C35.6587 61.1287 35.7148 61.1548 35.7634 61.1997C35.8833 61.3106 35.859 61.4778 35.7634 61.5908L35.7379 61.621V61.621C35.6783 61.6914 35.5652 61.7185 35.4728 61.7042C35.4737 62.2036 35.477 62.7031 35.4754 63.2025C35.4749 63.355 35.4725 63.5076 35.4698 63.6601L35.4633 64.0259C35.459 64.2346 35.4401 64.4998 35.2204 64.5936C34.9727 64.6994 34.7505 64.6127 34.6502 64.3678C34.6231 64.3014 34.6289 64.2396 34.6388 64.174C34.6357 64.0755 34.6199 63.9613 34.6218 63.8698L34.63 63.4885V63.4885C34.6313 63.4297 34.6338 63.3709 34.6355 63.3121L34.6283 63.3128V63.3128C33.748 63.3544 32.8616 63.3341 31.9798 63.3336L31.5877 63.3342C31.2605 63.3345 30.9326 63.3328 30.6058 63.3206L30.4834 63.3155C30.2388 63.3043 29.9815 63.3008 29.7279 63.2795C29.7602 63.5329 29.7905 63.7865 29.8174 64.0403C29.8429 64.281 29.5877 64.4855 29.36 64.4855C29.0897 64.4855 28.935 64.2787 28.9027 64.0403C28.7499 62.916 28.6874 61.7811 28.5414 60.6561C28.4107 59.6484 28.2973 58.6384 28.1821 57.6288L28.1436 57.2922C27.7219 53.6181 27.3126 49.9426 26.921 46.2654L26.7386 44.5463C26.5545 42.8137 26.3693 41.081 26.2131 39.3458C26.1237 38.3538 26.0414 37.3616 25.964 36.3686C25.9071 35.6391 25.8714 34.9136 25.8482 34.1855C25.7566 34.0938 25.7106 33.9597 25.7512 33.8213C25.775 33.7406 25.8026 33.6602 25.8317 33.58C25.8299 33.5012 25.828 33.4225 25.8264 33.3436C25.8249 33.2689 25.9028 33.2305 25.9651 33.2429C26.0783 32.9759 26.2031 32.7112 26.3072 32.4469C26.4756 32.0189 26.6145 31.5578 26.8525 31.1619ZM17.444 35.787C19.2051 34.7126 21.3014 33.9395 23.4009 34.0227C23.4487 34.0246 23.4621 34.0954 23.4126 34.1062C22.2926 34.3496 21.1604 34.6461 20.1001 35.0776C19.0368 35.5105 18.0257 36.0933 17.1252 36.7936C15.4637 38.0858 14.1723 39.7665 13.3219 41.6611C12.8238 42.7709 12.4747 43.9426 12.1698 45.1147C11.8472 46.3552 11.5813 47.609 11.3602 48.8704C10.9236 51.362 10.6694 53.881 10.5341 56.4044C10.3965 58.9712 10.4532 61.5399 10.355 64.1071C10.3381 64.5519 9.685 64.5432 9.65181 64.1071C9.42941 61.1884 9.55262 58.223 9.7583 55.3063C9.94324 52.6843 10.2662 50.0677 10.7862 47.4879L10.8315 47.2643C11.3177 44.8774 11.9041 42.4328 13.0794 40.2712C14.0829 38.4258 15.632 36.8926 17.444 35.787ZM41.8993 47.1945C41.9084 47.1689 41.9432 47.1692 41.9524 47.1945C42.1532 47.7416 42.1604 48.3589 42.2138 48.9356L42.218 48.9799C42.2691 49.5059 42.3077 50.0326 42.3435 50.5597L42.3568 50.7573C42.5006 52.9076 42.6804 55.0555 42.9512 57.1944C43.2212 59.3253 43.5861 61.4413 43.9807 63.5532C44.0247 63.7883 43.9177 64.0278 43.6644 64.0955C43.4412 64.1553 43.1545 64.0214 43.1073 63.7876C42.8623 62.5755 42.6642 61.3617 42.4874 60.139C42.1763 57.986 41.9441 55.8231 41.7948 53.6538C41.7199 52.5642 41.6737 51.4751 41.6554 50.3832C41.6469 49.8766 41.6605 49.3688 41.6882 48.8627L41.6948 48.746C41.7254 48.2287 41.7223 47.6878 41.8993 47.1945ZM22.8697 60.8904C22.8932 60.878 22.9223 60.9035 22.9074 60.9272C22.5664 61.4667 22.1051 61.9318 21.6592 62.3903C21.1931 62.8696 20.7385 63.3633 20.263 63.8332C19.9194 64.1726 19.3667 63.6251 19.7293 63.3136C20.2392 62.8759 20.7721 62.4598 21.291 62.0318L21.5179 61.8445C21.9434 61.4946 22.3815 61.1478 22.8697 60.8904ZM39.0661 60.6202C39.0406 60.573 39.0988 60.5347 39.1383 60.566C39.4134 60.7837 39.6599 61.0435 39.9255 61.2733C40.1885 61.5009 40.4614 61.7132 40.7417 61.9202C41.0231 62.1282 41.3107 62.3278 41.6061 62.5166C41.8511 62.6733 42.1036 62.7988 42.3602 62.9288C42.479 62.9437 42.589 63.0005 42.677 63.1081C42.8163 63.2783 42.8311 63.5993 42.638 63.747L42.6033 63.7735V63.7735C42.3779 63.946 42.1104 63.967 41.8885 63.7735C41.6408 63.5576 41.4066 63.3199 41.1687 63.0917L41.0972 63.0235C40.8416 62.7816 40.5922 62.5319 40.357 62.271L40.1442 62.0352C39.7492 61.5968 39.3382 61.1243 39.0661 60.6202ZM37.7991 35.3453C37.7533 35.3158 37.7815 35.2363 37.838 35.2553L37.9416 35.2902C38.3744 35.4366 38.8199 35.5989 39.2129 35.8244C39.6352 36.0666 40.0251 36.3552 40.3976 36.6648C41.1687 37.3056 41.8247 38.0935 42.3822 38.9148C43.5009 40.5629 44.1927 42.4504 44.7512 44.3389C45.3468 46.3526 45.8053 48.4096 46.1797 50.4724C46.5601 52.5688 46.8536 54.6841 47.0465 56.8047C47.1415 57.8493 47.2053 58.8946 47.2373 59.9428C47.2539 60.4821 47.2533 61.021 47.2487 61.5604C47.2475 61.6991 47.2485 61.8378 47.2501 61.9765L47.2555 62.3925C47.2584 62.6555 47.2908 62.932 47.2266 63.1889C47.1232 63.6026 46.4206 63.5254 46.4437 63.1026C46.4225 62.962 46.4217 62.8166 46.4272 62.6709C46.4238 62.6521 46.4202 62.633 46.4162 62.6135C46.4047 62.5576 46.4145 62.5059 46.437 62.4614C46.4407 62.3915 46.4439 62.3221 46.4451 62.2538C46.4497 61.9761 46.4494 61.6994 46.4415 61.4218C46.4249 60.8363 46.401 60.2508 46.3768 59.6657C46.3285 58.4963 46.2614 57.3263 46.164 56.1598C45.8252 52.0994 45.1098 48.0158 43.9082 44.1094C43.3501 42.2953 42.5806 40.5145 41.4772 38.947C40.9874 38.2511 40.4348 37.6083 39.8222 37.0117C39.2057 36.4114 38.5264 35.8142 37.7991 35.3453ZM29.4843 61.5207L29.5676 62.1071C29.6092 62.4003 29.6504 62.6936 29.6896 62.9871C29.9553 62.9517 30.2273 62.9369 30.4834 62.9148C30.9318 62.8761 31.3832 62.8574 31.8329 62.8393C32.7629 62.802 33.6974 62.7372 34.6283 62.7417C34.6379 62.7418 34.6469 62.7424 34.6559 62.7431L34.7021 61.5862V61.5862L34.0481 61.5852V61.5852C33.4939 61.5843 32.9399 61.5797 32.3858 61.5751C31.8867 61.5709 31.3875 61.5703 30.8885 61.5602L30.6746 61.5552C30.2962 61.5453 29.8784 61.5658 29.4843 61.5207ZM34.757 59.8414C34.7303 59.8444 34.7031 59.847 34.6743 59.8482C34.5447 59.8535 34.4142 59.8498 34.2845 59.8509C34.0085 59.8532 33.7325 59.855 33.4564 59.855C32.9043 59.8549 32.3523 59.8582 31.8004 59.8647C31.2321 59.8714 30.6643 59.881 30.096 59.8821C29.8206 59.8825 29.5461 59.8754 29.2709 59.8679C29.3154 60.2487 29.3619 60.6292 29.4133 61.0088C29.8408 60.9526 30.3005 60.981 30.7182 60.9771L30.7725 60.9764C31.3426 60.9669 31.9133 60.9739 32.4836 60.9746C33.0703 60.9752 33.6569 60.9771 34.2436 60.9818L34.7256 60.9856V60.9856L34.7266 60.962V60.962C34.7407 60.5889 34.7498 60.2152 34.757 59.8414ZM29.0588 58.0197C29.1123 58.4692 29.1624 58.9194 29.2136 59.3695C29.2475 59.3644 29.282 59.36 29.317 59.3564C29.5928 59.3284 29.8679 59.3043 30.1446 59.2876C30.6963 59.2544 31.2478 59.2368 31.8004 59.2224C32.3685 59.2075 32.9368 59.1962 33.5051 59.1883C33.7812 59.1846 34.0571 59.185 34.3333 59.1868C34.4628 59.1877 34.5937 59.1837 34.7229 59.1922C34.7383 59.1932 34.7531 59.1947 34.7677 59.1964L34.7774 58.5206C34.7791 58.408 34.7808 58.2954 34.7827 58.1828C34.3559 58.2084 33.9221 58.1986 33.4956 58.1988L33.3973 58.199C32.8615 58.2014 32.3255 58.1942 31.7897 58.1834C31.237 58.1722 30.6854 58.1546 30.1337 58.1201C29.9102 58.1062 29.6883 58.0877 29.466 58.0638L29.3548 58.0514C29.258 58.0403 29.1584 58.0314 29.0588 58.0197ZM34.8267 56.1127C33.7989 56.1921 32.7766 56.2253 31.7461 56.2351L31.5914 56.2364C30.6808 56.2432 29.7626 56.2797 28.8498 56.2563C28.9043 56.7169 28.9588 57.1775 29.0136 57.6381C29.1443 57.6322 29.2757 57.6321 29.4035 57.6276C29.6634 57.6185 29.9224 57.6162 30.1824 57.6157C30.7182 57.6145 31.2539 57.619 31.7897 57.618C32.3419 57.6168 32.894 57.6077 33.446 57.5976C33.8936 57.5895 34.346 57.5567 34.7948 57.5579L34.8267 56.1127V56.1127ZM34.8702 54.1474C34.7511 54.1859 34.6105 54.1884 34.4564 54.1953L34.0585 54.2146C33.8741 54.2234 33.6896 54.2316 33.5051 54.2382C32.8902 54.2601 32.2754 54.2806 31.6604 54.2996C31.0302 54.3191 30.397 54.3304 29.7667 54.3111C29.458 54.3016 29.1518 54.2858 28.844 54.2608C28.7679 54.2546 28.6904 54.2505 28.6127 54.2452C28.6843 54.8555 28.7562 55.4657 28.8284 56.076C29.7369 55.9674 30.6523 55.8998 31.5597 55.7876L32.3801 55.6856C33.2001 55.5837 34.0195 55.4838 34.8425 55.3995L34.8702 54.1474V54.1474ZM34.914 52.1604C34.7393 52.2024 34.5401 52.2004 34.3723 52.2107L34.3412 52.2128C34.0232 52.2362 33.7045 52.248 33.3858 52.2556C32.7611 52.2706 32.1361 52.2781 31.5113 52.2818L31.1355 52.2841C30.6347 52.287 30.1341 52.2882 29.633 52.2768C29.3116 52.2696 28.991 52.2542 28.6698 52.2386C28.5736 52.2339 28.4753 52.2308 28.3766 52.2259C28.4438 52.8038 28.5116 53.3814 28.5792 53.9592C28.6847 53.9428 28.7907 53.9304 28.8918 53.9138C29.1506 53.8713 29.409 53.8373 29.6696 53.8069C30.2343 53.741 30.8018 53.6936 31.3691 53.6536C31.9515 53.6125 32.5343 53.5778 33.1168 53.538L33.5293 53.5097C33.6668 53.5004 33.8043 53.4914 33.9419 53.4832C34.1769 53.4692 34.45 53.485 34.683 53.4352C34.7461 53.4096 34.8162 53.4038 34.8863 53.4184L34.914 52.1604V52.1604ZM34.9669 49.8347C34.9065 49.9094 34.8162 49.9486 34.7085 49.9622C34.1476 50.033 33.5723 50.0444 33.0068 50.0777L32.907 50.0839C32.3231 50.1213 31.7387 50.1508 31.1543 50.181C30.5539 50.212 29.9537 50.2373 29.3528 50.2577C29.0977 50.2663 28.8414 50.2673 28.5859 50.2641L28.4765 50.2625C28.3715 50.2608 28.2617 50.2611 28.1515 50.2576C28.2125 50.7979 28.274 51.3381 28.3364 51.8783C28.4487 51.8664 28.5609 51.8573 28.6698 51.8461C28.9908 51.8131 29.3113 51.7804 29.633 51.7557C30.2425 51.709 30.8525 51.6808 31.4632 51.6514C32.088 51.6213 32.7131 51.6013 33.338 51.5729C33.6409 51.5591 33.9438 51.542 34.2458 51.5148C34.4576 51.4959 34.709 51.4257 34.9299 51.4515C34.942 50.9125 34.9545 50.3736 34.9669 49.8347ZM35.0162 47.7512C35.0066 47.7657 34.9955 47.7796 34.9819 47.7926C34.7349 48.0301 34.4306 48.0117 34.1034 48.0367L34.0834 48.0382C33.7627 48.0645 33.4418 48.0895 33.1208 48.112C32.479 48.1571 31.836 48.1886 31.1933 48.2168C30.5356 48.2455 29.8737 48.2653 29.2153 48.2523C28.7937 48.2439 28.3521 48.2453 27.9221 48.2053C27.9881 48.8004 28.0546 49.3954 28.1215 49.9904C28.2424 49.9682 28.3641 49.9512 28.4794 49.9335C28.7699 49.889 29.0607 49.8443 29.3528 49.8116C29.9367 49.7461 30.5206 49.6849 31.1056 49.6297C31.6059 49.5825 32.106 49.5346 32.6066 49.4914L32.907 49.4662C33.5044 49.4172 34.1092 49.3366 34.7085 49.3246C34.8072 49.3227 34.9189 49.375 34.9755 49.4576C34.9887 48.8888 35.0025 48.32 35.0162 47.7512ZM35.0577 46.0646C34.9051 46.0826 34.7408 46.0724 34.6 46.0769C34.2441 46.0882 33.8882 46.0987 33.5322 46.1089L31.3965 46.1703V46.1703C30.6693 46.1911 29.9396 46.2068 29.2122 46.1968C28.8921 46.1924 28.5708 46.1919 28.2509 46.1749L28.1443 46.1686C28.0126 46.1601 27.8511 46.1589 27.6933 46.1433L27.8796 47.8228V47.8228C28.3075 47.7626 28.7486 47.7401 29.1729 47.7048L29.2635 47.697C29.8893 47.6415 30.5181 47.6048 31.1451 47.5635C31.7882 47.5211 32.4304 47.4696 33.0726 47.417C33.3936 47.3907 33.7146 47.3645 34.0353 47.3358L34.0749 47.332C34.3779 47.3012 34.6628 47.2357 34.9312 47.4096C34.9704 47.435 35.0012 47.469 35.0222 47.507C35.0339 47.0262 35.0454 46.5454 35.0577 46.0646ZM35.1074 44.1045C33.8067 44.1555 32.5058 44.1942 31.2042 44.2112C30.4715 44.2207 29.7397 44.214 29.0071 44.1991C28.6894 44.1926 28.3691 44.1778 28.0517 44.1541L27.9328 44.1448C27.7819 44.1325 27.6234 44.1235 27.4655 44.1087C27.5307 44.6861 27.5955 45.2637 27.6597 45.8413C27.815 45.8132 27.9773 45.8002 28.1134 45.7833L28.1443 45.7793C28.4824 45.734 28.8238 45.7076 29.1636 45.6785C29.8253 45.6217 30.4903 45.5852 31.1538 45.5541C31.8332 45.5223 32.5129 45.4953 33.1924 45.4659L33.872 45.4363C33.9852 45.4314 34.0985 45.4266 34.2117 45.4219C34.3736 45.4153 34.5354 45.409 34.6972 45.4024C34.777 45.3992 34.8599 45.3887 34.9398 45.3927L34.9626 45.3897C34.9731 45.3884 34.9823 45.3874 34.9908 45.3865C35.0126 45.3704 35.036 45.357 35.0608 45.3469L35.0758 45.3412L35.1074 44.1045ZM27.2522 42.247C27.3126 42.7669 27.3723 43.2869 27.4313 43.8069C27.6168 43.7863 27.8045 43.7749 27.9817 43.7593C28.3388 43.7282 28.6977 43.7009 29.0559 43.6848L29.772 43.6525C30.2492 43.631 30.7265 43.6102 31.2042 43.5932C32.5114 43.5468 33.8186 43.4936 35.125 43.4286C35.1342 43.0759 35.1437 42.7233 35.1534 42.3706C35.0907 42.436 35.0001 42.479 34.8811 42.4787C33.5095 42.4751 32.1369 42.4828 30.7655 42.4609C30.079 42.4499 29.3934 42.4337 28.7077 42.3994C28.3722 42.3827 28.0348 42.3485 27.7019 42.3036C27.5599 42.2844 27.4045 42.2708 27.2522 42.247ZM27.0327 40.3947C27.0972 40.9272 27.1604 41.4598 27.2226 41.9926C27.393 41.963 27.5689 41.9473 27.7278 41.9262C28.0693 41.881 28.4128 41.845 28.7567 41.8261C29.4259 41.7893 30.0954 41.7707 30.7655 41.7569C32.1368 41.7285 33.5095 41.7287 34.8811 41.7181C35.0099 41.7171 35.1056 41.7668 35.1684 41.8409C35.1779 41.5083 35.1879 41.1758 35.1983 40.8432C35.0658 40.8296 34.9345 40.8103 34.8129 40.8021C34.4394 40.7767 34.0657 40.7535 33.6918 40.7326C32.9117 40.689 32.1308 40.6518 31.3501 40.6188C30.5692 40.5857 29.788 40.5534 29.0069 40.5252L28.6653 40.5131C28.1221 40.4934 27.5696 40.4686 27.0327 40.3947ZM26.7871 38.3892C26.8542 38.9285 26.9203 39.4679 26.9862 40.0074L27.0063 40.1743V40.1743C27.6596 40.0507 28.3481 40.0145 29.0069 39.9872C29.7882 39.9549 30.5681 39.9382 31.3501 39.9406C32.1313 39.9429 32.9113 39.9608 33.6918 39.9923C34.0818 40.0079 34.4718 40.026 34.8616 40.0467C34.9688 40.0523 35.0944 40.0493 35.2238 40.0511C35.2266 39.9663 35.229 39.8816 35.232 39.7968C35.2438 39.4535 35.2555 39.1101 35.2676 38.7668C35.0039 38.8986 34.6611 38.9518 34.3962 39.0079L34.366 39.0144C33.9285 39.1101 33.4818 39.1721 33.0352 39.21C32.1583 39.2845 31.2722 39.2566 30.3961 39.1845L30.2426 39.1717C29.4733 39.1068 28.6757 39.0245 27.9299 38.8391C27.5746 38.7509 27.2073 38.6274 26.889 38.4483C26.8559 38.4297 26.8217 38.41 26.7871 38.3892ZM34.1948 31.9801C34.2024 31.951 34.2472 31.9443 34.262 31.9716C34.3656 32.1632 34.4041 32.3931 34.4761 32.5984C34.5535 32.8191 34.6257 33.0415 34.7111 33.2595C34.8895 33.715 35.1 34.1528 35.3509 34.5748C35.5995 34.9926 34.9036 35.2909 34.7207 34.8334C34.5319 34.3613 34.3767 33.8733 34.2828 33.3744C34.237 33.131 34.1961 32.8843 34.1829 32.637C34.1715 32.4246 34.1408 32.1873 34.1948 31.9801Z" fill="black"/>
<path fill-rule="evenodd" clip-rule="evenodd" d="M39.2305 22.712C39.211 21.6427 39.1895 20.5521 39.0265 19.4932C38.8672 18.458 38.429 17.5223 37.6759 16.7706C36.0764 15.1739 33.7578 14.7839 31.5996 14.4265L27.9096 13.8154C26.7839 13.629 25.5829 13.3311 24.4455 13.5954C23.8851 13.7257 23.4091 14.0283 22.9741 14.3863C22.5549 14.7314 22.104 15.102 21.8199 15.5662C21.5353 16.0312 21.4374 16.5747 21.3449 17.1005C21.2406 17.6934 21.1595 18.2909 21.1019 18.8898C20.9865 20.0898 20.9707 21.2987 21.0544 22.5012C21.095 23.0844 21.1595 23.6659 21.2419 24.2449C21.2828 24.532 21.329 24.8184 21.3811 25.1038C21.3965 25.1879 21.4082 25.2811 21.4239 25.3752C21.3075 25.6981 21.2414 26.0326 21.2467 26.3656C21.2624 27.3466 22.1111 27.9642 22.9668 28.2957C23.4629 28.488 23.9815 28.6186 24.469 28.8334C24.9818 29.0593 25.3308 29.4256 25.6814 29.8434C26.3501 30.6402 27.1047 31.3563 27.9663 31.9538C29.7931 33.2206 32.1069 33.8198 34.3234 33.365C34.8553 33.2559 35.3918 33.0865 35.8698 32.8311C36.3746 32.5616 36.7541 32.171 37.0728 31.7092C37.6645 30.852 38.0889 29.8866 38.41 28.9043C38.7374 27.9022 38.9699 26.8983 39.0966 25.8535C39.223 24.812 39.2496 23.7599 39.2305 22.712V22.712Z" fill="#FFCAA6"/>
<path fill-rule="evenodd" clip-rule="evenodd" d="M27.4555 10.0907C28.9825 9.88577 31.09 10.5517 31.8505 11.8946C35.4811 11.0596 40.0602 11.0323 43.0526 13.8119C46.175 17.1093 42.2531 21.4568 39.6525 22.437C39.8419 23.3347 39.5466 29.0855 37.4577 31.6507C35.7999 33.8241 31.9393 34.8272 30.1529 32.2312L30.139 32.2097C29.9476 31.9099 30.1124 31.9196 30.3089 32.1426C32.0582 33.6433 34.4366 33.6689 36.2694 32.0852C39.7044 29.1903 39.3502 22.0923 37.7157 17.986C33.0614 17.4873 28.0781 18.8635 24.8634 22.2814L25.0808 23.5581C25.1179 23.7756 25.1599 23.993 25.192 24.2112C25.2126 24.3511 25.2149 24.4902 25.1156 24.6034C24.7876 24.9771 24.2349 24.4155 23.7801 24.1921C23.6459 24.1737 23.5114 24.1666 23.3795 24.1757C21.1945 24.4502 21.625 28.5851 24.0264 27.8603C24.2282 27.7377 24.4015 27.7751 24.4798 27.9531C25.0522 28.4646 25.4296 29.3768 26.3806 30.2554C26.7161 30.585 27.0215 30.8607 27.3989 31.1251C27.6206 31.3438 28.2895 31.5668 28.0774 31.9411C27.6764 32.7927 25.3118 30.1176 24.8937 29.3778C23.5838 29.8824 22.1322 29.711 20.7748 29.5877C13.6135 29.2245 14.5695 21.8601 20.4394 17.2106C21.5444 16.4171 22.7634 15.7697 24.0307 15.2715C24.2037 15.2035 24.1281 14.9264 23.9526 14.9954C23.1141 15.325 22.2967 15.7174 21.5176 16.1716L21.5164 15.9001C21.5152 15.4428 21.5226 14.9666 21.604 14.5488C21.6447 14.2593 21.7132 13.95 21.8185 13.7174C21.9488 13.0041 23.9898 10.5559 27.4555 10.0907ZM23.2839 25.125C23.3945 25.0225 23.6009 25.1447 23.6993 25.1416C23.9511 25.1752 24.1902 25.2789 24.3767 25.407C24.4999 25.4743 24.5862 25.5375 24.6583 25.5956L24.6602 25.5951C24.6597 25.5951 24.659 25.5956 24.6584 25.5957L24.6652 25.6002C24.7702 25.673 25.1546 26.083 24.9118 25.9727C24.8937 25.9498 24.8751 25.9277 24.8564 25.9061C24.8544 25.909 24.8516 25.9119 24.8483 25.9148L24.8619 25.9345C25.0684 26.2374 24.712 25.9183 24.6572 25.8335C24.6546 25.8356 24.6516 25.837 24.6487 25.8384L24.7201 25.9232C24.7301 25.9353 24.738 25.9449 24.7445 25.953L24.7595 25.9672C24.9982 26.196 25.0057 26.402 24.7284 26.0636C24.7393 26.0796 24.7481 26.0965 24.7493 26.1115L24.7657 26.1319C24.9834 26.4056 24.8063 26.3084 24.6982 26.1915L24.6891 26.1814L24.691 26.1842C24.7916 26.3354 24.5919 26.2293 24.5566 26.1484L24.5551 26.1447C24.5167 26.1141 24.493 26.0798 24.4849 26.0711L24.4834 26.0697C24.2962 25.8825 24.0249 25.7242 23.7944 25.6523C23.761 25.6461 23.7272 25.6411 23.693 25.6376C23.5544 25.6074 23.4143 25.5868 23.2727 25.5756C23.2554 25.5736 23.2378 25.5612 23.2247 25.5451C23.0106 25.5381 23.0767 25.4525 23.1655 25.4366L23.1671 25.4363L23.1494 25.4349C23.012 25.4218 22.9182 25.3737 23.0571 25.3442L23.0747 25.3408C23.0726 25.3375 23.0707 25.3342 23.0688 25.3309C22.9498 25.3181 23.0275 25.2053 23.0935 25.2326C23.0657 25.144 23.1928 25.1882 23.2086 25.175C23.2207 25.162 23.2357 25.1504 23.2444 25.1498C23.2826 25.1234 23.2641 25.1258 23.2839 25.125ZM24.0119 23.6899L23.9841 23.7058C23.9615 23.7187 23.9383 23.7272 23.915 23.7322C23.9479 23.7459 23.9804 23.7606 24.0125 23.7764C24.012 23.7571 24.0116 23.7379 24.0116 23.7187L24.0119 23.6899Z" fill="black"/>
<path fill-rule="evenodd" clip-rule="evenodd" d="M35.251 27.8738C35.4193 27.5848 35.9212 27.6318 35.998 27.9688C36.1536 28.652 35.3167 29.283 34.6811 29.2987C34.0495 29.3143 33.3408 28.7909 33.4322 28.1299C33.4548 27.9664 33.6792 27.9862 33.7556 28.0887L33.7853 28.1281C33.9931 28.3998 34.2672 28.681 34.6527 28.6147C34.8125 28.5873 34.9576 28.4901 35.0542 28.365C35.1707 28.2141 35.1579 28.0338 35.251 27.8738ZM31.2346 22.8754C31.3202 22.8525 31.4066 22.8613 31.4825 22.8928C31.6518 22.923 31.7933 23.0604 31.843 23.2174C31.8469 23.231 31.8513 23.2444 31.8561 23.2577L31.8637 23.2775L31.8434 23.2272C31.8527 23.2767 31.8942 23.3288 31.9091 23.3785C31.9274 23.4397 31.9319 23.5091 31.9257 23.5764C31.9795 23.5769 32.0334 23.5787 32.0871 23.5832L32.139 23.5878C32.4294 23.614 32.7482 23.6622 32.9204 23.9065C33.0171 24.0438 32.9263 24.2909 32.7487 24.3174C32.4753 24.3581 32.2397 24.2108 31.9672 24.1813C31.7096 24.1534 31.4401 24.1694 31.1858 24.2147C30.6608 24.3081 30.1785 24.5152 29.6669 24.6452L29.5972 24.6624V24.6624L29.5973 24.6621C29.5097 24.6827 29.4101 24.564 29.4969 24.4946C29.9067 24.1669 30.4314 23.9013 30.9483 23.7395C30.873 23.6229 30.8497 23.4693 30.9012 23.3441C30.9092 23.3182 30.9191 23.2929 30.9295 23.2678L30.9513 23.216V23.216C30.9534 23.1916 30.9582 23.1675 30.9652 23.1439L30.9663 23.1367V23.1367L30.9669 23.1371V23.1371C31.0054 23.0154 31.1059 22.91 31.2346 22.8754ZM36.4634 22.8943C36.5754 22.7851 36.7329 22.8012 36.8499 22.8872L36.8654 22.899V22.899C36.9757 22.9467 37.067 23.0509 37.1269 23.1474C37.1891 23.2477 37.2304 23.3499 37.232 23.4603C37.5034 23.4611 37.7633 23.5404 37.9625 23.7536C38.0268 23.8224 38.0707 23.9286 38.0353 24.0219L38.0142 24.0774V24.0774C37.9474 24.2537 37.6466 24.3551 37.5444 24.1479L37.5397 24.1378C37.4311 23.8917 37.0142 23.9175 36.7926 23.9426C36.6382 23.9602 36.4857 23.9976 36.3365 24.0395C36.284 24.0542 36.2319 24.0702 36.1799 24.0866L36.1278 24.103C36.1001 24.1117 35.9556 24.1882 36.0455 24.1701C36.0696 24.1652 36.0878 24.1995 36.0632 24.211C35.956 24.2608 35.8417 24.1615 35.8488 24.0494C35.8612 23.8549 36.1786 23.7482 36.3312 23.6812L36.3404 23.6771C36.3989 23.6508 36.4603 23.6255 36.5236 23.6021C36.488 23.5505 36.4585 23.4932 36.4341 23.4318C36.4109 23.3737 36.3955 23.3173 36.387 23.2556C36.3787 23.2254 36.3787 23.1953 36.387 23.165L36.3883 23.1564V23.1564C36.384 23.1365 36.3819 23.1158 36.3822 23.0951L36.3813 23.087L36.3822 23.087C36.3852 23.0143 36.4149 22.9415 36.4634 22.8943ZM34.6724 24.966C35.103 25.0956 35.8135 25.4484 35.5891 25.9931C35.2757 26.4933 34.4447 26.1257 34.042 25.9641C33.6802 25.8474 33.4919 26.341 33.8417 26.4898C36.7324 27.6031 36.7218 24.6648 34.7772 24.708C34.5631 24.7127 34.5564 24.923 34.6724 24.966ZM30.8479 21.1348L30.9213 21.1139C31.303 21.0063 31.6927 20.8204 32.0315 21.1105C32.1646 21.2243 32.192 21.461 32.0968 21.603C31.8799 21.9267 31.5582 21.8773 31.2079 21.9048C30.9412 21.9258 30.6784 22.0021 30.4295 22.0974C30.226 22.1754 30.0373 22.2851 29.8591 22.4075C29.6841 22.5278 29.5645 22.7159 29.3849 22.8242C29.3191 22.8639 29.2432 22.8231 29.2195 22.7587C29.1358 22.5303 29.2773 22.2458 29.397 22.0512C29.5432 21.8138 29.7652 21.6196 30.0039 21.4727C30.2653 21.3118 30.5544 21.2189 30.8479 21.1348V21.1348ZM36.4096 20.8891C37.0548 20.8889 37.6756 21.2382 38.0365 21.7503C38.1591 21.9243 38.0692 22.182 37.8932 22.2822C37.6958 22.3947 37.4846 22.3137 37.3545 22.1526L37.3468 22.1428C37.1398 21.8745 36.8731 21.6632 36.5568 21.5256C36.4025 21.4585 36.2319 21.404 36.065 21.3764L36.0111 21.3674C35.9355 21.3551 35.8478 21.3433 35.7794 21.3548C35.7428 21.3595 35.7092 21.3713 35.6782 21.3892C35.6931 21.4209 35.6546 21.4591 35.619 21.4401C35.4587 21.3544 35.4784 21.2015 35.6108 21.0826C35.7982 20.9145 36.1677 20.8891 36.4096 20.8891Z" fill="black"/>
</svg>
